<?xml version="1.0" encoding="utf-8"?>
<!-- Generator: Adobe Illustrator 22.1.0, SVG Export Plug-In . SVG Version: 6.00 Build 0)  -->
<svg version="1.1" id="Calque_1" xmlns="http://www.w3.org/2000/svg" xmlns:xlink="http://www.w3.org/1999/xlink" x="0px" y="0px"
	 viewBox="0 0 415.6 212.6" style="enable-background:new 0 0 415.6 212.6;" xml:space="preserve">
<style type="text/css">
	.st0{fill:#A3A3A3;}
	.st1{fill:#CFCFCF;}
	.st2{fill:#696969;}
	.st3{fill:#888888;}
	.st4{fill:#7A7A7A;}
	.st5{fill:#9E9E9E;}
	.st6{fill:#BCBCBC;}
	.st7{fill:#C4C4C4;}
	.st8{fill:#CBCBCB;}
	.st9{fill:#C8C8C8;}
	.st10{fill:#CACACA;}
	.st11{fill:#D7D7D7;}
	.st12{fill:#D3D3D3;}
	.st13{fill:#D2D2D2;}
	.st14{fill:none;}
	.st15{opacity:0.75;enable-background:new    ;}
</style>
<rect x="0" y="0" class="st0" width="8.9" height="212.6"/>
<title>banner</title>
<polygon class="st1" points="202.1,202.3 202.1,202.5 202.3,202.5 "/>
<polygon class="st2" points="214.2,0.1 202.1,0.1 202.1,0.4 208.1,10.2 "/>
<polygon class="st3" points="214.2,20.3 202.1,20.3 202.1,20.6 208.1,30.4 "/>
<polygon class="st2" points="208.1,10.2 202.1,20 202.1,20.3 214.2,20.3 "/>
<polygon class="st4" points="220.3,10.2 208.1,10.2 214.2,20.3 "/>
<polygon class="st2" points="220.3,10.2 214.2,0.1 208.1,10.2 "/>
<polygon class="st2" points="226.4,0.1 214.2,0.1 220.3,10.2 "/>
<polygon class="st4" points="214.2,40.5 202.1,40.5 202.1,40.9 208.1,50.7 "/>
<polygon class="st2" points="208.1,30.4 202.1,40.2 202.1,40.5 214.2,40.5 "/>
<polygon class="st3" points="208.1,30.4 214.2,40.5 220.3,30.4 "/>
<polygon class="st2" points="214.2,20.3 208.1,30.4 220.3,30.4 "/>
<polygon class="st4" points="226.4,20.3 214.2,20.3 220.3,30.4 "/>
<polygon class="st2" points="226.4,20.3 220.3,10.2 214.2,20.3 "/>
<polygon class="st2" points="232.6,10.2 220.3,10.2 226.4,20.3 "/>
<polygon class="st2" points="232.6,10.2 226.4,0.1 220.3,10.2 "/>
<polygon class="st4" points="238.7,0.1 226.4,0.1 232.6,10.2 "/>
<polygon class="st3" points="214.2,60.8 202.1,60.8 202.1,61.1 208.1,70.9 "/>
<polygon class="st5" points="208.1,50.7 202.1,60.5 202.1,60.8 214.2,60.8 "/>
<polygon class="st4" points="208.1,50.7 214.2,60.8 220.3,50.7 "/>
<polygon class="st3" points="214.2,40.5 208.1,50.7 220.3,50.7 "/>
<polygon class="st3" points="226.4,40.5 214.2,40.5 220.3,50.7 "/>
<polygon class="st4" points="220.3,30.4 214.2,40.5 226.4,40.5 "/>
<polygon class="st2" points="220.3,30.4 226.4,40.5 232.6,30.4 "/>
<polygon class="st2" points="232.6,30.4 226.4,20.3 220.3,30.4 "/>
<polygon class="st5" points="238.7,20.3 226.4,20.3 232.6,30.4 "/>
<polygon class="st2" points="238.7,20.3 232.6,10.2 226.4,20.3 "/>
<polygon class="st2" points="244.8,10.2 232.6,10.2 238.7,20.3 "/>
<polygon class="st2" points="244.8,10.2 238.7,0.1 232.6,10.2 "/>
<polygon class="st2" points="250.9,0.1 238.7,0.1 244.8,10.2 "/>
<polygon class="st5" points="214.2,81.1 202.1,81.1 202.1,81.4 208.1,91.2 "/>
<polygon class="st4" points="208.1,70.9 202.1,80.7 202.1,81.1 214.2,81.1 "/>
<polygon class="st5" points="208.1,70.9 214.2,81.1 220.3,70.9 "/>
<polygon class="st3" points="214.2,60.8 208.1,70.9 220.3,70.9 "/>
<polygon class="st5" points="226.4,60.8 214.2,60.8 220.3,70.9 "/>
<polygon class="st3" points="220.3,50.7 214.2,60.8 226.4,60.8 "/>
<polygon class="st4" points="220.3,50.7 226.4,60.8 232.6,50.7 "/>
<polygon class="st4" points="226.4,40.5 220.3,50.7 232.6,50.7 "/>
<polygon class="st3" points="238.7,40.5 226.4,40.5 232.6,50.7 "/>
<polygon class="st4" points="232.6,30.4 226.4,40.5 238.7,40.5 "/>
<polygon class="st3" points="244.8,30.4 232.6,30.4 238.7,40.5 "/>
<polygon class="st2" points="244.8,30.4 238.7,20.3 232.6,30.4 "/>
<polygon class="st4" points="250.9,20.3 238.7,20.3 244.8,30.4 "/>
<polygon class="st2" points="250.9,20.3 244.8,10.2 238.7,20.3 "/>
<polygon class="st2" points="257,10.2 244.8,10.2 250.9,20.3 "/>
<polygon class="st4" points="257,10.2 250.9,0.1 244.8,10.2 "/>
<polygon class="st2" points="263.2,0.1 250.9,0.1 257,10.2 "/>
<polygon class="st3" points="214.2,101.3 202.1,101.3 202.1,101.6 208.1,111.4 "/>
<polygon class="st5" points="208.1,91.2 202.1,101 202.1,101.3 214.2,101.3 "/>
<polygon class="st4" points="208.1,91.2 214.2,101.3 220.3,91.2 "/>
<polygon class="st3" points="214.2,81.1 208.1,91.2 220.3,91.2 "/>
<polygon class="st6" points="226.4,81.1 214.2,81.1 220.3,91.2 "/>
<polygon class="st5" points="220.3,70.9 214.2,81.1 226.4,81.1 "/>
<polygon class="st6" points="220.3,70.9 226.4,81.1 232.6,70.9 "/>
<polygon class="st2" points="226.4,60.8 220.3,70.9 232.6,70.9 "/>
<polygon class="st5" points="238.7,60.8 226.4,60.8 232.6,70.9 "/>
<polygon class="st5" points="232.6,50.7 226.4,60.8 238.7,60.8 "/>
<polygon class="st3" points="232.6,50.7 238.7,60.8 244.8,50.7 "/>
<polygon class="st3" points="238.7,40.5 232.6,50.7 244.8,50.7 "/>
<polygon class="st2" points="250.9,40.5 238.7,40.5 244.8,50.7 "/>
<polygon class="st3" points="250.9,40.5 244.8,30.4 238.7,40.5 "/>
<polygon class="st5" points="257,30.4 244.8,30.4 250.9,40.5 "/>
<polygon class="st2" points="257,30.4 250.9,20.3 244.8,30.4 "/>
<polygon class="st3" points="263.2,20.3 250.9,20.3 257,30.4 "/>
<polygon class="st2" points="263.2,20.3 257,10.2 250.9,20.3 "/>
<polygon class="st3" points="269.3,10.2 257,10.2 263.2,20.3 "/>
<polygon class="st2" points="269.3,10.2 263.2,0.1 257,10.2 "/>
<polygon class="st2" points="275.4,0.1 263.2,0.1 269.3,10.2 "/>
<polygon class="st3" points="214.2,121.5 202.1,121.5 202.1,121.9 208.1,131.7 "/>
<polygon class="st4" points="208.1,111.4 202.1,121.2 202.1,121.5 214.2,121.5 "/>
<polygon class="st5" points="208.1,111.4 214.2,121.5 220.3,111.4 "/>
<polygon class="st3" points="214.2,101.3 208.1,111.4 220.3,111.4 "/>
<polygon class="st5" points="226.4,101.3 214.2,101.3 220.3,111.4 "/>
<polygon class="st3" points="220.3,91.2 214.2,101.3 226.4,101.3 "/>
<polygon class="st6" points="220.3,91.2 226.4,101.3 232.6,91.2 "/>
<polygon class="st3" points="226.4,81.1 220.3,91.2 232.6,91.2 "/>
<polygon class="st6" points="238.7,81.1 226.4,81.1 232.6,91.2 "/>
<polygon class="st3" points="232.6,70.9 226.4,81.1 238.7,81.1 "/>
<polygon class="st5" points="232.6,70.9 238.7,81.1 244.8,70.9 "/>
<polygon class="st3" points="238.7,60.8 232.6,70.9 244.8,70.9 "/>
<polygon class="st4" points="250.9,60.8 238.7,60.8 244.8,70.9 "/>
<polygon class="st2" points="244.8,50.7 238.7,60.8 250.9,60.8 "/>
<polygon class="st5" points="244.8,50.7 250.9,60.8 257,50.7 "/>
<polygon class="st3" points="257,50.7 250.9,40.5 244.8,50.7 "/>
<polygon class="st4" points="263.2,40.5 250.9,40.5 257,50.7 "/>
<polygon class="st2" points="263.2,40.5 257,30.4 250.9,40.5 "/>
<polygon class="st4" points="269.3,30.4 257,30.4 263.2,40.5 "/>
<polygon class="st2" points="269.3,30.4 263.2,20.3 257,30.4 "/>
<polygon class="st2" points="275.4,20.3 263.2,20.3 269.3,30.4 "/>
<polygon class="st4" points="275.4,20.3 269.3,10.2 263.2,20.3 "/>
<polygon class="st2" points="281.5,10.2 269.3,10.2 275.4,20.3 "/>
<polygon class="st2" points="281.5,10.2 275.4,0.1 269.3,10.2 "/>
<polygon class="st4" points="287.6,0.1 275.4,0.1 281.5,10.2 "/>
<polygon class="st6" points="214.2,141.8 202.1,141.8 202.1,142.1 208.1,151.9 "/>
<polygon class="st5" points="208.1,131.7 202.1,141.5 202.1,141.8 214.2,141.8 "/>
<polygon class="st3" points="208.1,131.7 214.2,141.8 220.3,131.7 "/>
<polygon class="st5" points="214.2,121.5 208.1,131.7 220.3,131.7 "/>
<polygon class="st6" points="226.4,121.5 214.2,121.5 220.3,131.7 "/>
<polygon class="st3" points="220.3,111.4 214.2,121.5 226.4,121.5 "/>
<polygon class="st6" points="220.3,111.4 226.4,121.5 232.6,111.4 "/>
<polygon class="st4" points="226.4,101.3 220.3,111.4 232.6,111.4 "/>
<polygon class="st6" points="238.7,101.3 226.4,101.3 232.6,111.4 "/>
<polygon class="st5" points="232.6,91.2 226.4,101.3 238.7,101.3 "/>
<polygon class="st5" points="232.6,91.2 238.7,101.3 244.8,91.2 "/>
<polygon class="st4" points="238.7,81.1 232.6,91.2 244.8,91.2 "/>
<polygon class="st5" points="250.9,81.1 238.7,81.1 244.8,91.2 "/>
<polygon class="st4" points="244.8,70.9 238.7,81.1 250.9,81.1 "/>
<polygon class="st3" points="244.8,70.9 250.9,81.1 257,70.9 "/>
<polygon class="st6" points="250.9,60.8 244.8,70.9 257,70.9 "/>
<polygon class="st4" points="263.2,60.8 250.9,60.8 257,70.9 "/>
<polygon class="st5" points="257,50.7 250.9,60.8 263.2,60.8 "/>
<polygon class="st4" points="269.3,50.7 257,50.7 263.2,60.8 "/>
<polygon class="st3" points="269.3,50.7 263.2,40.5 257,50.7 "/>
<polygon class="st2" points="275.4,40.5 263.2,40.5 269.3,50.7 "/>
<polygon class="st5" points="275.4,40.5 269.3,30.4 263.2,40.5 "/>
<polygon class="st4" points="281.5,30.4 269.3,30.4 275.4,40.5 "/>
<polygon class="st3" points="281.5,30.4 275.4,20.3 269.3,30.4 "/>
<polygon class="st2" points="287.6,20.3 275.4,20.3 281.5,30.4 "/>
<polygon class="st4" points="287.6,20.3 281.5,10.2 275.4,20.3 "/>
<polygon class="st2" points="293.8,10.2 281.5,10.2 287.6,20.3 "/>
<polygon class="st2" points="293.8,10.2 287.6,0.1 281.5,10.2 "/>
<polygon class="st2" points="299.9,0.1 287.6,0.1 293.8,10.2 "/>
<polygon class="st4" points="202.1,162 202.1,162.4 208.1,172.2 214.2,162 "/>
<polygon class="st5" points="208.1,151.9 202.1,161.7 202.1,162 214.2,162 "/>
<polygon class="st3" points="208.1,151.9 214.2,162 220.3,151.9 "/>
<polygon class="st7" points="214.2,141.8 208.1,151.9 220.3,151.9 "/>
<polygon class="st6" points="226.4,141.8 214.2,141.8 220.3,151.9 "/>
<polygon class="st6" points="220.3,131.7 214.2,141.8 226.4,141.8 "/>
<polygon class="st5" points="220.3,131.7 226.4,141.8 232.6,131.7 "/>
<polygon class="st2" points="226.4,121.5 220.3,131.7 232.6,131.7 "/>
<polygon class="st7" points="238.7,121.5 226.4,121.5 232.6,131.7 "/>
<polygon class="st5" points="232.6,111.4 226.4,121.5 238.7,121.5 "/>
<polygon class="st3" points="232.6,111.4 238.7,121.5 244.8,111.4 "/>
<polygon class="st6" points="238.7,101.3 232.6,111.4 244.8,111.4 "/>
<polygon class="st3" points="250.9,101.3 238.7,101.3 244.8,111.4 "/>
<polygon class="st7" points="244.8,91.2 238.7,101.3 250.9,101.3 "/>
<polygon class="st6" points="244.8,91.2 250.9,101.3 257,91.2 "/>
<polygon class="st3" points="250.9,81.1 244.8,91.2 257,91.2 "/>
<polygon class="st6" points="263.2,81.1 250.9,81.1 257,91.2 "/>
<polygon class="st3" points="257,70.9 250.9,81.1 263.2,81.1 "/>
<polygon class="st4" points="257,70.9 263.2,81.1 269.3,70.9 "/>
<polygon class="st5" points="263.2,60.8 257,70.9 269.3,70.9 "/>
<polygon class="st3" points="275.4,60.8 263.2,60.8 269.3,70.9 "/>
<polygon class="st5" points="275.4,60.8 269.3,50.7 263.2,60.8 "/>
<polygon class="st3" points="281.5,50.7 269.3,50.7 275.4,60.8 "/>
<polygon class="st3" points="281.5,50.7 275.4,40.5 269.3,50.7 "/>
<polygon class="st3" points="287.6,40.5 275.4,40.5 281.5,50.7 "/>
<polygon class="st2" points="287.6,40.5 281.5,30.4 275.4,40.5 "/>
<polygon class="st2" points="293.8,30.4 281.5,30.4 287.6,40.5 "/>
<polygon class="st2" points="293.8,30.4 287.6,20.3 281.5,30.4 "/>
<polygon class="st4" points="299.9,20.3 287.6,20.3 293.8,30.4 "/>
<polygon class="st2" points="299.9,20.3 293.8,10.2 287.6,20.3 "/>
<polygon class="st2" points="306,10.2 293.8,10.2 299.9,20.3 "/>
<polygon class="st2" points="306,10.2 299.9,0.1 293.8,10.2 "/>
<polygon class="st2" points="312.1,0.1 299.9,0.1 306,10.2 "/>
<polygon class="st6" points="214.2,182.3 202.1,182.3 202.1,182.6 208.1,192.4 "/>
<polygon class="st3" points="202.1,182 202.1,182.3 214.2,182.3 208.1,172.2 "/>
<polygon class="st6" points="208.1,172.2 214.2,182.3 220.3,172.2 "/>
<polygon class="st6" points="208.1,172.2 220.3,172.2 214.2,162 "/>
<polygon class="st5" points="214.2,162 220.3,172.2 226.4,162 "/>
<polygon class="st6" points="214.2,162 226.4,162 220.3,151.9 "/>
<polygon class="st4" points="220.3,151.9 226.4,162 232.6,151.9 "/>
<polygon class="st7" points="220.3,151.9 232.6,151.9 226.4,141.8 "/>
<polygon class="st7" points="226.4,141.8 232.6,151.9 238.7,141.8 "/>
<polygon class="st4" points="232.6,131.7 226.4,141.8 238.7,141.8 "/>
<polygon class="st6" points="232.6,131.7 238.7,141.8 244.8,131.7 "/>
<polygon class="st5" points="238.7,121.5 232.6,131.7 244.8,131.7 "/>
<polygon class="st4" points="250.9,121.5 238.7,121.5 244.8,131.7 "/>
<polygon class="st7" points="244.8,111.4 238.7,121.5 250.9,121.5 "/>
<polygon class="st6" points="244.8,111.4 250.9,121.5 257,111.4 "/>
<polygon class="st3" points="250.9,101.3 244.8,111.4 257,111.4 "/>
<polygon class="st5" points="263.2,101.3 250.9,101.3 257,111.4 "/>
<polygon class="st5" points="257,91.2 250.9,101.3 263.2,101.3 "/>
<polygon class="st6" points="257,91.2 263.2,101.3 269.3,91.2 "/>
<polygon class="st5" points="263.2,81.1 257,91.2 269.3,91.2 "/>
<polygon class="st3" points="275.4,81.1 263.2,81.1 269.3,91.2 "/>
<polygon class="st3" points="269.3,70.9 263.2,81.1 275.4,81.1 "/>
<polygon class="st5" points="269.3,70.9 275.4,81.1 281.5,70.9 "/>
<polygon class="st6" points="281.5,70.9 275.4,60.8 269.3,70.9 "/>
<polygon class="st4" points="287.6,60.8 275.4,60.8 281.5,70.9 "/>
<polygon class="st5" points="287.6,60.8 281.5,50.7 275.4,60.8 "/>
<polygon class="st3" points="293.8,50.7 281.5,50.7 287.6,60.8 "/>
<polygon class="st4" points="293.8,50.7 287.6,40.5 281.5,50.7 "/>
<polygon class="st3" points="299.9,40.5 287.6,40.5 293.8,50.7 "/>
<polygon class="st2" points="299.9,40.5 293.8,30.4 287.6,40.5 "/>
<polygon class="st3" points="306,30.4 293.8,30.4 299.9,40.5 "/>
<polygon class="st2" points="306,30.4 299.9,20.3 293.8,30.4 "/>
<polygon class="st2" points="312.1,20.3 299.9,20.3 306,30.4 "/>
<polygon class="st3" points="312.1,20.3 306,10.2 299.9,20.3 "/>
<polygon class="st2" points="318.3,10.2 306,10.2 312.1,20.3 "/>
<polygon class="st2" points="318.3,10.2 312.1,0.1 306,10.2 "/>
<polygon class="st4" points="324.4,0.1 312.1,0.1 318.3,10.2 "/>
<polygon class="st6" points="214.2,202.5 208.1,192.4 202.1,202.2 202.1,202.3 202.3,202.5 "/>
<polygon class="st3" points="208.1,192.4 214.2,202.5 220.3,192.4 "/>
<polygon class="st5" points="214.2,182.3 208.1,192.4 220.3,192.4 "/>
<polygon class="st6" points="226.4,182.3 214.2,182.3 220.3,192.4 "/>
<polygon class="st8" points="220.3,172.2 214.2,182.3 226.4,182.3 "/>
<polygon class="st3" points="220.3,172.2 226.4,182.3 232.6,172.2 "/>
<polygon class="st7" points="226.4,162 220.3,172.2 232.6,172.2 "/>
<polygon class="st5" points="226.4,162 232.6,172.2 238.7,162 "/>
<polygon class="st8" points="232.6,151.9 226.4,162 238.7,162 "/>
<polygon class="st4" points="232.6,151.9 238.7,162 244.8,151.9 "/>
<polygon class="st3" points="238.7,141.8 232.6,151.9 244.8,151.9 "/>
<polygon class="st6" points="238.7,141.8 244.8,151.9 250.9,141.8 "/>
<polygon class="st5" points="244.8,131.7 238.7,141.8 250.9,141.8 "/>
<polygon class="st3" points="244.8,131.7 250.9,141.8 257,131.7 "/>
<polygon class="st7" points="250.9,121.5 244.8,131.7 257,131.7 "/>
<polygon class="st6" points="263.2,121.5 250.9,121.5 257,131.7 "/>
<polygon class="st5" points="257,111.4 250.9,121.5 263.2,121.5 "/>
<polygon class="st6" points="257,111.4 263.2,121.5 269.3,111.4 "/>
<polygon class="st2" points="263.2,101.3 257,111.4 269.3,111.4 "/>
<polygon class="st6" points="275.4,101.3 263.2,101.3 269.3,111.4 "/>
<polygon class="st5" points="269.3,91.2 263.2,101.3 275.4,101.3 "/>
<polygon class="st7" points="269.3,91.2 275.4,101.3 281.5,91.2 "/>
<polygon class="st6" points="275.4,81.1 269.3,91.2 281.5,91.2 "/>
<polygon class="st3" points="287.6,81.1 275.4,81.1 281.5,91.2 "/>
<polygon class="st3" points="281.5,70.9 275.4,81.1 287.6,81.1 "/>
<polygon class="st5" points="293.8,70.9 281.5,70.9 287.6,81.1 "/>
<polygon class="st3" points="293.8,70.9 287.6,60.8 281.5,70.9 "/>
<polygon class="st6" points="299.9,60.8 287.6,60.8 293.8,70.9 "/>
<polygon class="st4" points="299.9,60.8 293.8,50.7 287.6,60.8 "/>
<polygon class="st6" points="306,50.7 293.8,50.7 299.9,60.8 "/>
<polygon class="st3" points="306,50.7 299.9,40.5 293.8,50.7 "/>
<polygon class="st4" points="312.1,40.5 299.9,40.5 306,50.7 "/>
<polygon class="st5" points="312.1,40.5 306,30.4 299.9,40.5 "/>
<polygon class="st4" points="318.3,30.4 306,30.4 312.1,40.5 "/>
<polygon class="st2" points="318.3,30.4 312.1,20.3 306,30.4 "/>
<polygon class="st4" points="324.4,20.3 312.1,20.3 318.3,30.4 "/>
<polygon class="st2" points="324.4,20.3 318.3,10.2 312.1,20.3 "/>
<polygon class="st2" points="330.5,10.2 318.3,10.2 324.4,20.3 "/>
<polygon class="st2" points="330.5,10.2 324.4,0.1 318.3,10.2 "/>
<polygon class="st2" points="336.6,0.1 324.4,0.1 330.5,10.2 "/>
<polygon class="st6" points="214.2,202.5 226.4,202.5 220.3,192.4 "/>
<polygon class="st7" points="220.3,192.4 226.4,202.5 232.6,192.4 "/>
<polygon class="st5" points="220.3,192.4 232.6,192.4 226.4,182.3 "/>
<polygon class="st6" points="226.4,182.3 232.6,192.4 238.7,182.3 "/>
<polygon class="st7" points="232.6,172.2 226.4,182.3 238.7,182.3 "/>
<polygon class="st6" points="232.6,172.2 238.7,182.3 244.8,172.2 "/>
<polygon class="st6" points="238.7,162 232.6,172.2 244.8,172.2 "/>
<polygon class="st5" points="238.7,162 244.8,172.2 250.9,162 "/>
<polygon class="st7" points="244.8,151.9 238.7,162 250.9,162 "/>
<polygon class="st6" points="244.8,151.9 250.9,162 257,151.9 "/>
<polygon class="st5" points="250.9,141.8 244.8,151.9 257,151.9 "/>
<polygon class="st3" points="250.9,141.8 257,151.9 263.2,141.8 "/>
<polygon class="st6" points="257,131.7 250.9,141.8 263.2,141.8 "/>
<polygon class="st7" points="257,131.7 263.2,141.8 269.3,131.7 "/>
<polygon class="st3" points="263.2,121.5 257,131.7 269.3,131.7 "/>
<polygon class="st5" points="275.4,121.5 263.2,121.5 269.3,131.7 "/>
<polygon class="st5" points="269.3,111.4 263.2,121.5 275.4,121.5 "/>
<polygon class="st7" points="269.3,111.4 275.4,121.5 281.5,111.4 "/>
<polygon class="st5" points="275.4,101.3 269.3,111.4 281.5,111.4 "/>
<polygon class="st6" points="287.6,101.3 275.4,101.3 281.5,111.4 "/>
<polygon class="st3" points="281.5,91.2 275.4,101.3 287.6,101.3 "/>
<polygon class="st5" points="281.5,91.2 287.6,101.3 293.8,91.2 "/>
<polygon class="st7" points="287.6,81.1 281.5,91.2 293.8,91.2 "/>
<polygon class="st5" points="299.9,81.1 287.6,81.1 293.8,91.2 "/>
<polygon class="st4" points="299.9,81.1 293.8,70.9 287.6,81.1 "/>
<polygon class="st3" points="306,70.9 293.8,70.9 299.9,81.1 "/>
<polygon class="st5" points="306,70.9 299.9,60.8 293.8,70.9 "/>
<polygon class="st3" points="312.1,60.8 299.9,60.8 306,70.9 "/>
<polygon class="st3" points="312.1,60.8 306,50.7 299.9,60.8 "/>
<polygon class="st5" points="318.3,50.7 306,50.7 312.1,60.8 "/>
<polygon class="st3" points="318.3,50.7 312.1,40.5 306,50.7 "/>
<polygon class="st3" points="324.4,40.5 312.1,40.5 318.3,50.7 "/>
<polygon class="st2" points="324.4,40.5 318.3,30.4 312.1,40.5 "/>
<polygon class="st4" points="330.5,30.4 318.3,30.4 324.4,40.5 "/>
<polygon class="st2" points="330.5,30.4 324.4,20.3 318.3,30.4 "/>
<polygon class="st2" points="336.6,20.3 324.4,20.3 330.5,30.4 "/>
<polygon class="st4" points="336.6,20.3 330.5,10.2 324.4,20.3 "/>
<polygon class="st2" points="342.7,10.2 330.5,10.2 336.6,20.3 "/>
<polygon class="st2" points="342.7,10.2 336.6,0.1 330.5,10.2 "/>
<polygon class="st2" points="348.9,0.1 336.6,0.1 342.7,10.2 "/>
<polygon class="st6" points="232.6,192.4 226.4,202.5 238.7,202.5 "/>
<polygon class="st7" points="232.6,192.4 238.7,202.5 244.8,192.4 "/>
<polygon class="st5" points="238.7,182.3 232.6,192.4 244.8,192.4 "/>
<polygon class="st7" points="238.7,182.3 244.8,192.4 250.9,182.3 "/>
<polygon class="st7" points="244.8,172.2 238.7,182.3 250.9,182.3 "/>
<polygon class="st9" points="244.8,172.2 250.9,182.3 257,172.2 "/>
<polygon class="st3" points="250.9,162 244.8,172.2 257,172.2 "/>
<polygon class="st7" points="250.9,162 257,172.2 263.2,162 "/>
<polygon class="st6" points="257,151.9 250.9,162 263.2,162 "/>
<polygon class="st6" points="257,151.9 263.2,162 269.3,151.9 "/>
<polygon class="st5" points="263.2,141.8 257,151.9 269.3,151.9 "/>
<polygon class="st8" points="263.2,141.8 269.3,151.9 275.4,141.8 "/>
<polygon class="st5" points="269.3,131.7 263.2,141.8 275.4,141.8 "/>
<polygon class="st8" points="269.3,131.7 275.4,141.8 281.5,131.7 "/>
<polygon class="st4" points="275.4,121.5 269.3,131.7 281.5,131.7 "/>
<polygon class="st6" points="287.6,121.5 275.4,121.5 281.5,131.7 "/>
<polygon class="st5" points="281.5,111.4 275.4,121.5 287.6,121.5 "/>
<polygon class="st3" points="281.5,111.4 287.6,121.5 293.8,111.4 "/>
<polygon class="st9" points="287.6,101.3 281.5,111.4 293.8,111.4 "/>
<polygon class="st6" points="299.9,101.3 287.6,101.3 293.8,111.4 "/>
<polygon class="st6" points="293.8,91.2 287.6,101.3 299.9,101.3 "/>
<polygon class="st5" points="299.9,101.3 306,91.2 293.8,91.2 "/>
<polygon class="st2" points="293.8,91.2 306,91.2 299.9,81.1 "/>
<polygon class="st5" points="306,91.2 312.1,81.1 299.9,81.1 "/>
<polygon class="st5" points="312.1,81.1 306,70.9 299.9,81.1 "/>
<polygon class="st4" points="312.1,81.1 318.3,70.9 306,70.9 "/>
<polygon class="st6" points="318.3,70.9 312.1,60.8 306,70.9 "/>
<polygon class="st5" points="324.4,60.8 312.1,60.8 318.3,70.9 "/>
<polygon class="st4" points="324.4,60.8 318.3,50.7 312.1,60.8 "/>
<polygon class="st3" points="330.5,50.7 318.3,50.7 324.4,60.8 "/>
<polygon class="st2" points="330.5,50.7 324.4,40.5 318.3,50.7 "/>
<polygon class="st4" points="336.6,40.5 324.4,40.5 330.5,50.7 "/>
<polygon class="st2" points="336.6,40.5 330.5,30.4 324.4,40.5 "/>
<polygon class="st2" points="342.7,30.4 330.5,30.4 336.6,40.5 "/>
<polygon class="st3" points="342.7,30.4 336.6,20.3 330.5,30.4 "/>
<polygon class="st2" points="348.9,20.3 336.6,20.3 342.7,30.4 "/>
<polygon class="st4" points="348.9,20.3 342.7,10.2 336.6,20.3 "/>
<polygon class="st2" points="355,10.2 342.7,10.2 348.9,20.3 "/>
<polygon class="st2" points="355,10.2 348.9,0.1 342.7,10.2 "/>
<polygon class="st2" points="361.1,0.1 348.9,0.1 355,10.2 "/>
<polygon class="st9" points="244.8,192.4 238.7,202.5 250.9,202.5 "/>
<polygon class="st8" points="244.8,192.4 250.9,202.5 257,192.4 "/>
<polygon class="st6" points="250.9,182.3 244.8,192.4 257,192.4 "/>
<polygon class="st4" points="250.9,182.3 257,192.4 263.2,182.3 "/>
<polygon class="st9" points="257,172.2 250.9,182.3 263.2,182.3 "/>
<polygon class="st7" points="257,172.2 263.2,182.3 269.3,172.2 "/>
<polygon class="st5" points="263.2,162 257,172.2 269.3,172.2 "/>
<polygon class="st9" points="263.2,162 269.3,172.2 275.4,162 "/>
<polygon class="st3" points="269.3,151.9 263.2,162 275.4,162 "/>
<polygon class="st9" points="269.3,151.9 275.4,162 281.5,151.9 "/>
<polygon class="st7" points="275.4,141.8 269.3,151.9 281.5,151.9 "/>
<polygon class="st6" points="275.4,141.8 281.5,151.9 287.6,141.8 "/>
<polygon class="st7" points="281.5,131.7 275.4,141.8 287.6,141.8 "/>
<polygon class="st8" points="281.5,131.7 287.6,141.8 293.8,131.7 "/>
<polygon class="st5" points="287.6,121.5 281.5,131.7 293.8,131.7 "/>
<polygon class="st9" points="299.9,121.5 287.6,121.5 293.8,131.7 "/>
<polygon class="st6" points="293.8,111.4 287.6,121.5 299.9,121.5 "/>
<polygon class="st8" points="299.9,121.5 306,111.4 293.8,111.4 "/>
<polygon class="st5" points="293.8,111.4 306,111.4 299.9,101.3 "/>
<polygon class="st7" points="306,111.4 312.1,101.3 299.9,101.3 "/>
<polygon class="st3" points="312.1,101.3 306,91.2 299.9,101.3 "/>
<polygon class="st6" points="312.1,101.3 318.3,91.2 306,91.2 "/>
<polygon class="st6" points="306,91.2 318.3,91.2 312.1,81.1 "/>
<polygon class="st5" points="318.3,91.2 324.4,81.1 312.1,81.1 "/>
<polygon class="st6" points="324.4,81.1 318.3,70.9 312.1,81.1 "/>
<polygon class="st3" points="324.4,81.1 330.5,70.9 318.3,70.9 "/>
<polygon class="st3" points="318.3,70.9 330.5,70.9 324.4,60.8 "/>
<polygon class="st4" points="330.5,70.9 336.6,60.8 324.4,60.8 "/>
<polygon class="st2" points="336.6,60.8 330.5,50.7 324.4,60.8 "/>
<polygon class="st6" points="336.6,60.8 342.7,50.7 330.5,50.7 "/>
<polygon class="st5" points="342.7,50.7 336.6,40.5 330.5,50.7 "/>
<polygon class="st3" points="348.9,40.5 336.6,40.5 342.7,50.7 "/>
<polygon class="st5" points="348.9,40.5 342.7,30.4 336.6,40.5 "/>
<polygon class="st4" points="355,30.4 342.7,30.4 348.9,40.5 "/>
<polygon class="st2" points="355,30.4 348.9,20.3 342.7,30.4 "/>
<polygon class="st2" points="361.1,20.3 348.9,20.3 355,30.4 "/>
<polygon class="st3" points="361.1,20.3 355,10.2 348.9,20.3 "/>
<polygon class="st2" points="367.2,10.2 355,10.2 361.1,20.3 "/>
<polygon class="st3" points="367.2,10.2 361.1,0.1 355,10.2 "/>
<polygon class="st2" points="373.3,0.1 361.1,0.1 367.2,10.2 "/>
<polygon class="st7" points="250.9,202.5 263.2,202.5 257,192.4 "/>
<polygon class="st5" points="257,192.4 263.2,202.5 269.3,192.4 "/>
<polygon class="st9" points="257,192.4 269.3,192.4 263.2,182.3 "/>
<polygon class="st1" points="263.2,182.3 269.3,192.4 275.4,182.3 "/>
<polygon class="st6" points="263.2,182.3 275.4,182.3 269.3,172.2 "/>
<polygon class="st8" points="269.3,172.2 275.4,182.3 281.5,172.2 "/>
<polygon class="st8" points="269.3,172.2 281.5,172.2 275.4,162 "/>
<polygon class="st6" points="275.4,162 281.5,172.2 287.6,162 "/>
<polygon class="st5" points="275.4,162 287.6,162 281.5,151.9 "/>
<polygon class="st8" points="281.5,151.9 287.6,162 293.8,151.9 "/>
<polygon class="st9" points="281.5,151.9 293.8,151.9 287.6,141.8 "/>
<polygon class="st8" points="287.6,141.8 293.8,151.9 299.9,141.8 "/>
<polygon class="st7" points="287.6,141.8 299.9,141.8 293.8,131.7 "/>
<polygon class="st1" points="299.9,141.8 306,131.7 293.8,131.7 "/>
<polygon class="st7" points="293.8,131.7 306,131.7 299.9,121.5 "/>
<polygon class="st7" points="306,131.7 312.1,121.5 299.9,121.5 "/>
<polygon class="st4" points="312.1,121.5 306,111.4 299.9,121.5 "/>
<polygon class="st6" points="312.1,121.5 318.3,111.4 306,111.4 "/>
<polygon class="st9" points="306,111.4 318.3,111.4 312.1,101.3 "/>
<polygon class="st5" points="318.3,111.4 324.4,101.3 312.1,101.3 "/>
<polygon class="st9" points="324.4,101.3 318.3,91.2 312.1,101.3 "/>
<polygon class="st3" points="324.4,101.3 330.5,91.2 318.3,91.2 "/>
<polygon class="st7" points="318.3,91.2 330.5,91.2 324.4,81.1 "/>
<polygon class="st6" points="330.5,91.2 336.6,81.1 324.4,81.1 "/>
<polygon class="st5" points="336.6,81.1 330.5,70.9 324.4,81.1 "/>
<polygon class="st3" points="336.6,81.1 342.7,70.9 330.5,70.9 "/>
<polygon class="st6" points="330.5,70.9 342.7,70.9 336.6,60.8 "/>
<polygon class="st5" points="342.7,70.9 348.9,60.8 336.6,60.8 "/>
<polygon class="st3" points="348.9,60.8 342.7,50.7 336.6,60.8 "/>
<polygon class="st4" points="348.9,60.8 355,50.7 342.7,50.7 "/>
<polygon class="st2" points="342.7,50.7 355,50.7 348.9,40.5 "/>
<polygon class="st2" points="355,50.7 361.1,40.5 348.9,40.5 "/>
<polygon class="st4" points="361.1,40.5 355,30.4 348.9,40.5 "/>
<polygon class="st2" points="361.1,40.5 367.2,30.4 355,30.4 "/>
<polygon class="st4" points="367.2,30.4 361.1,20.3 355,30.4 "/>
<polygon class="st2" points="373.3,20.3 361.1,20.3 367.2,30.4 "/>
<polygon class="st2" points="373.3,20.3 367.2,10.2 361.1,20.3 "/>
<polygon class="st4" points="379.5,10.2 367.2,10.2 373.3,20.3 "/>
<polygon class="st4" points="379.5,10.2 373.3,0.1 367.2,10.2 "/>
<polygon class="st2" points="385.6,0.1 373.3,0.1 379.5,10.2 "/>
<polygon class="st9" points="263.2,202.5 275.4,202.5 269.3,192.4 "/>
<polygon class="st7" points="269.3,192.4 275.4,202.5 281.5,192.4 "/>
<polygon class="st8" points="269.3,192.4 281.5,192.4 275.4,182.3 "/>
<polygon class="st7" points="275.4,182.3 281.5,192.4 287.6,182.3 "/>
<polygon class="st7" points="275.4,182.3 287.6,182.3 281.5,172.2 "/>
<polygon class="st5" points="281.5,172.2 287.6,182.3 293.8,172.2 "/>
<polygon class="st9" points="281.5,172.2 293.8,172.2 287.6,162 "/>
<polygon class="st8" points="287.6,162 293.8,172.2 299.9,162 "/>
<polygon class="st7" points="287.6,162 299.9,162 293.8,151.9 "/>
<polygon class="st1" points="293.8,151.9 299.9,162 306,151.9 "/>
<polygon class="st3" points="293.8,151.9 306,151.9 299.9,141.8 "/>
<polygon class="st8" points="299.9,141.8 306,151.9 312.1,141.8 "/>
<polygon class="st8" points="312.1,141.8 306,131.7 299.9,141.8 "/>
<polygon class="st9" points="312.1,141.8 318.3,131.7 306,131.7 "/>
<polygon class="st6" points="306,131.7 318.3,131.7 312.1,121.5 "/>
<polygon class="st7" points="318.3,131.7 324.4,121.5 312.1,121.5 "/>
<polygon class="st7" points="324.4,121.5 318.3,111.4 312.1,121.5 "/>
<polygon class="st6" points="324.4,121.5 330.5,111.4 318.3,111.4 "/>
<polygon class="st7" points="318.3,111.4 330.5,111.4 324.4,101.3 "/>
<polygon class="st5" points="330.5,111.4 336.6,101.3 324.4,101.3 "/>
<polygon class="st7" points="336.6,101.3 330.5,91.2 324.4,101.3 "/>
<polygon class="st6" points="336.6,101.3 342.7,91.2 330.5,91.2 "/>
<polygon class="st3" points="330.5,91.2 342.7,91.2 336.6,81.1 "/>
<polygon class="st7" points="342.7,91.2 348.9,81.1 336.6,81.1 "/>
<polygon class="st4" points="348.9,81.1 342.7,70.9 336.6,81.1 "/>
<polygon class="st5" points="348.9,81.1 355,70.9 342.7,70.9 "/>
<polygon class="st5" points="342.7,70.9 355,70.9 348.9,60.8 "/>
<polygon class="st3" points="355,70.9 361.1,60.8 348.9,60.8 "/>
<polygon class="st5" points="361.1,60.8 355,50.7 348.9,60.8 "/>
<polygon class="st3" points="361.1,60.8 367.2,50.7 355,50.7 "/>
<polygon class="st4" points="355,50.7 367.2,50.7 361.1,40.5 "/>
<polygon class="st3" points="367.2,50.7 373.3,40.5 361.1,40.5 "/>
<polygon class="st3" points="373.3,40.5 367.2,30.4 361.1,40.5 "/>
<polygon class="st2" points="373.3,40.5 379.5,30.4 367.2,30.4 "/>
<polygon class="st2" points="367.2,30.4 379.5,30.4 373.3,20.3 "/>
<polygon class="st2" points="379.5,30.4 385.6,20.3 373.3,20.3 "/>
<polygon class="st2" points="385.6,20.3 379.5,10.2 373.3,20.3 "/>
<polygon class="st3" points="391.7,10.2 379.5,10.2 385.6,20.3 "/>
<polygon class="st2" points="391.7,10.2 385.6,0.1 379.5,10.2 "/>
<polygon class="st2" points="397.8,0.1 385.6,0.1 391.7,10.2 "/>
<polygon class="st9" points="275.4,202.5 287.6,202.5 281.5,192.4 "/>
<polygon class="st8" points="281.5,192.4 287.6,202.5 293.8,192.4 "/>
<polygon class="st9" points="281.5,192.4 293.8,192.4 287.6,182.3 "/>
<polygon class="st8" points="287.6,182.3 293.8,192.4 299.9,182.3 "/>
<polygon class="st8" points="287.6,182.3 299.9,182.3 293.8,172.2 "/>
<polygon class="st9" points="293.8,172.2 299.9,182.3 306,172.2 "/>
<polygon class="st4" points="293.8,172.2 306,172.2 299.9,162 "/>
<polygon class="st8" points="299.9,162 306,172.2 312.1,162 "/>
<polygon class="st8" points="299.9,162 312.1,162 306,151.9 "/>
<polygon class="st7" points="306,151.9 312.1,162 318.3,151.9 "/>
<polygon class="st9" points="306,151.9 318.3,151.9 312.1,141.8 "/>
<polygon class="st9" points="318.3,151.9 324.4,141.8 312.1,141.8 "/>
<polygon class="st7" points="324.4,141.8 318.3,131.7 312.1,141.8 "/>
<polygon class="st8" points="324.4,141.8 330.5,131.7 318.3,131.7 "/>
<polygon class="st5" points="318.3,131.7 330.5,131.7 324.4,121.5 "/>
<polygon class="st7" points="330.5,131.7 336.6,121.5 324.4,121.5 "/>
<polygon class="st8" points="336.6,121.5 330.5,111.4 324.4,121.5 "/>
<polygon class="st3" points="336.6,121.5 342.7,111.4 330.5,111.4 "/>
<polygon class="st6" points="330.5,111.4 342.7,111.4 336.6,101.3 "/>
<polygon class="st7" points="342.7,111.4 348.9,101.3 336.6,101.3 "/>
<polygon class="st6" points="348.9,101.3 342.7,91.2 336.6,101.3 "/>
<polygon class="st8" points="348.9,101.3 355,91.2 342.7,91.2 "/>
<polygon class="st6" points="342.7,91.2 355,91.2 348.9,81.1 "/>
<polygon class="st5" points="355,91.2 361.1,81.1 348.9,81.1 "/>
<polygon class="st3" points="361.1,81.1 355,70.9 348.9,81.1 "/>
<polygon class="st6" points="361.1,81.1 367.2,70.9 355,70.9 "/>
<polygon class="st2" points="355,70.9 367.2,70.9 361.1,60.8 "/>
<polygon class="st3" points="367.2,70.9 373.3,60.8 361.1,60.8 "/>
<polygon class="st6" points="373.3,60.8 367.2,50.7 361.1,60.8 "/>
<polygon class="st5" points="373.3,60.8 379.5,50.7 367.2,50.7 "/>
<polygon class="st5" points="367.2,50.7 379.5,50.7 373.3,40.5 "/>
<polygon class="st2" points="379.5,50.7 385.6,40.5 373.3,40.5 "/>
<polygon class="st4" points="385.6,40.5 379.5,30.4 373.3,40.5 "/>
<polygon class="st3" points="385.6,40.5 391.7,30.4 379.5,30.4 "/>
<polygon class="st4" points="379.5,30.4 391.7,30.4 385.6,20.3 "/>
<polygon class="st3" points="391.7,30.4 397.8,20.3 385.6,20.3 "/>
<polygon class="st2" points="385.6,20.3 397.8,20.3 391.7,10.2 "/>
<polygon class="st2" points="397.8,20.3 403.9,10.2 391.7,10.2 "/>
<polygon class="st4" points="403.9,10.2 397.8,0.1 391.7,10.2 "/>
<polygon class="st2" points="403.9,10.2 410,0.1 397.8,0.1 "/>
<polygon class="st1" points="287.6,202.5 299.9,202.5 293.8,192.4 "/>
<polygon class="st9" points="293.8,192.4 299.9,202.5 306,192.4 "/>
<polygon class="st9" points="293.8,192.4 306,192.4 299.9,182.3 "/>
<polygon class="st8" points="299.9,182.3 306,192.4 312.1,182.3 "/>
<polygon class="st9" points="299.9,182.3 312.1,182.3 306,172.2 "/>
<polygon class="st10" points="306,172.2 312.1,182.3 318.3,172.2 "/>
<polygon class="st9" points="306,172.2 318.3,172.2 312.1,162 "/>
<polygon class="st9" points="312.1,162 318.3,172.2 324.4,162 "/>
<polygon class="st3" points="312.1,162 324.4,162 318.3,151.9 "/>
<polygon class="st9" points="324.4,162 330.5,151.9 318.3,151.9 "/>
<polygon class="st5" points="318.3,151.9 330.5,151.9 324.4,141.8 "/>
<polygon class="st1" points="330.5,151.9 336.6,141.8 324.4,141.8 "/>
<polygon class="st9" points="336.6,141.8 330.5,131.7 324.4,141.8 "/>
<polygon class="st7" points="336.6,141.8 342.7,131.7 330.5,131.7 "/>
<polygon class="st8" points="330.5,131.7 342.7,131.7 336.6,121.5 "/>
<polygon class="st9" points="342.7,131.7 348.9,121.5 336.6,121.5 "/>
<polygon class="st8" points="348.9,121.5 342.7,111.4 336.6,121.5 "/>
<polygon class="st6" points="348.9,121.5 355,111.4 342.7,111.4 "/>
<polygon class="st4" points="342.7,111.4 355,111.4 348.9,101.3 "/>
<polygon class="st8" points="355,111.4 361.1,101.3 348.9,101.3 "/>
<polygon class="st6" points="361.1,101.3 355,91.2 348.9,101.3 "/>
<polygon class="st5" points="361.1,101.3 367.2,91.2 355,91.2 "/>
<polygon class="st3" points="355,91.2 367.2,91.2 361.1,81.1 "/>
<polygon class="st6" points="367.2,91.2 373.3,81.1 361.1,81.1 "/>
<polygon class="st3" points="373.3,81.1 367.2,70.9 361.1,81.1 "/>
<polygon class="st3" points="373.3,81.1 379.5,70.9 367.2,70.9 "/>
<polygon class="st4" points="367.2,70.9 379.5,70.9 373.3,60.8 "/>
<polygon class="st3" points="379.5,70.9 385.6,60.8 373.3,60.8 "/>
<polygon class="st4" points="385.6,60.8 379.5,50.7 373.3,60.8 "/>
<polygon class="st4" points="385.6,60.8 391.7,50.7 379.5,50.7 "/>
<polygon class="st3" points="379.5,50.7 391.7,50.7 385.6,40.5 "/>
<polygon class="st3" points="391.7,50.7 397.8,40.5 385.6,40.5 "/>
<polygon class="st2" points="397.8,40.5 391.7,30.4 385.6,40.5 "/>
<polygon class="st3" points="397.8,40.5 403.9,30.4 391.7,30.4 "/>
<polygon class="st2" points="391.7,30.4 403.9,30.4 397.8,20.3 "/>
<polygon class="st4" points="403.9,30.4 410,20.3 397.8,20.3 "/>
<polygon class="st5" points="397.8,20.3 410,20.3 403.9,10.2 "/>
<polygon class="st3" points="410,20.3 415.6,11.2 415.6,10.2 403.9,10.2 "/>
<polygon class="st4" points="415.6,10.2 415.6,9.2 410,0.1 403.9,10.2 "/>
<polygon class="st2" points="415.6,9.2 415.6,0.1 410,0.1 "/>
<polygon class="st8" points="299.9,202.5 312.1,202.5 306,192.4 "/>
<polygon class="st9" points="306,192.4 312.1,202.5 318.3,192.4 "/>
<polygon class="st7" points="306,192.4 318.3,192.4 312.1,182.3 "/>
<polygon class="st1" points="312.1,182.3 318.3,192.4 324.4,182.3 "/>
<polygon class="st7" points="312.1,182.3 324.4,182.3 318.3,172.2 "/>
<polygon class="st1" points="318.3,172.2 324.4,182.3 330.5,172.2 "/>
<polygon class="st8" points="318.3,172.2 330.5,172.2 324.4,162 "/>
<polygon class="st1" points="324.4,162 330.5,172.2 336.6,162 "/>
<polygon class="st8" points="336.6,162 330.5,151.9 324.4,162 "/>
<polygon class="st9" points="336.6,162 342.7,151.9 330.5,151.9 "/>
<polygon class="st9" points="330.5,151.9 342.7,151.9 336.6,141.8 "/>
<polygon class="st5" points="342.7,151.9 348.9,141.8 336.6,141.8 "/>
<polygon class="st8" points="348.9,141.8 342.7,131.7 336.6,141.8 "/>
<polygon class="st4" points="348.9,141.8 355,131.7 342.7,131.7 "/>
<polygon class="st7" points="342.7,131.7 355,131.7 348.9,121.5 "/>
<polygon class="st8" points="355,131.7 361.1,121.5 348.9,121.5 "/>
<polygon class="st6" points="361.1,121.5 355,111.4 348.9,121.5 "/>
<polygon class="st8" points="361.1,121.5 367.2,111.4 355,111.4 "/>
<polygon class="st7" points="355,111.4 367.2,111.4 361.1,101.3 "/>
<polygon class="st3" points="367.2,111.4 373.3,101.3 361.1,101.3 "/>
<polygon class="st8" points="373.3,101.3 367.2,91.2 361.1,101.3 "/>
<polygon class="st7" points="373.3,101.3 379.5,91.2 367.2,91.2 "/>
<polygon class="st2" points="367.2,91.2 379.5,91.2 373.3,81.1 "/>
<polygon class="st6" points="379.5,91.2 385.6,81.1 373.3,81.1 "/>
<polygon class="st5" points="385.6,81.1 379.5,70.9 373.3,81.1 "/>
<polygon class="st4" points="385.6,81.1 391.7,70.9 379.5,70.9 "/>
<polygon class="st3" points="379.5,70.9 391.7,70.9 385.6,60.8 "/>
<polygon class="st5" points="391.7,70.9 397.8,60.8 385.6,60.8 "/>
<polygon class="st3" points="397.8,60.8 391.7,50.7 385.6,60.8 "/>
<polygon class="st3" points="397.8,60.8 403.9,50.7 391.7,50.7 "/>
<polygon class="st4" points="391.7,50.7 403.9,50.7 397.8,40.5 "/>
<polygon class="st3" points="403.9,50.7 410,40.5 397.8,40.5 "/>
<polygon class="st4" points="410,40.5 403.9,30.4 397.8,40.5 "/>
<polygon class="st2" points="410,40.5 415.6,31.4 415.6,30.4 403.9,30.4 "/>
<polygon class="st4" points="410,20.3 403.9,30.4 415.6,30.4 415.6,29.4 "/>
<polygon class="st2" points="415.6,29.4 415.6,20.3 410,20.3 "/>
<polygon class="st2" points="415.6,20.3 415.6,11.2 410,20.3 "/>
<polygon class="st1" points="312.1,202.5 324.4,202.5 318.3,192.4 "/>
<polygon class="st9" points="318.3,192.4 324.4,202.5 330.5,192.4 "/>
<polygon class="st9" points="318.3,192.4 330.5,192.4 324.4,182.3 "/>
<polygon class="st5" points="324.4,182.3 330.5,192.4 336.6,182.3 "/>
<polygon class="st9" points="324.4,182.3 336.6,182.3 330.5,172.2 "/>
<polygon class="st3" points="330.5,172.2 336.6,182.3 342.7,172.2 "/>
<polygon class="st9" points="330.5,172.2 342.7,172.2 336.6,162 "/>
<polygon class="st8" points="342.7,172.2 348.9,162 336.6,162 "/>
<polygon class="st11" points="348.9,162 342.7,151.9 336.6,162 "/>
<polygon class="st1" points="348.9,162 355,151.9 342.7,151.9 "/>
<polygon class="st8" points="342.7,151.9 355,151.9 348.9,141.8 "/>
<polygon class="st1" points="355,151.9 361.1,141.8 348.9,141.8 "/>
<polygon class="st8" points="361.1,141.8 355,131.7 348.9,141.8 "/>
<polygon class="st9" points="361.1,141.8 367.2,131.7 355,131.7 "/>
<polygon class="st3" points="355,131.7 367.2,131.7 361.1,121.5 "/>
<polygon class="st8" points="367.2,131.7 373.3,121.5 361.1,121.5 "/>
<polygon class="st7" points="373.3,121.5 367.2,111.4 361.1,121.5 "/>
<polygon class="st6" points="373.3,121.5 379.5,111.4 367.2,111.4 "/>
<polygon class="st1" points="367.2,111.4 379.5,111.4 373.3,101.3 "/>
<polygon class="st5" points="379.5,111.4 385.6,101.3 373.3,101.3 "/>
<polygon class="st8" points="385.6,101.3 379.5,91.2 373.3,101.3 "/>
<polygon class="st6" points="385.6,101.3 391.7,91.2 379.5,91.2 "/>
<polygon class="st4" points="379.5,91.2 391.7,91.2 385.6,81.1 "/>
<polygon class="st6" points="391.7,91.2 397.8,81.1 385.6,81.1 "/>
<polygon class="st9" points="397.8,81.1 391.7,70.9 385.6,81.1 "/>
<polygon class="st5" points="397.8,81.1 403.9,70.9 391.7,70.9 "/>
<polygon class="st3" points="391.7,70.9 403.9,70.9 397.8,60.8 "/>
<polygon class="st4" points="403.9,70.9 410,60.8 397.8,60.8 "/>
<polygon class="st5" points="410,60.8 403.9,50.7 397.8,60.8 "/>
<polygon class="st4" points="410,60.8 415.6,51.7 415.6,50.7 403.9,50.7 "/>
<polygon class="st5" points="403.9,50.7 415.6,50.7 415.6,49.7 410,40.5 "/>
<polygon class="st3" points="415.6,49.7 415.6,40.5 410,40.5 "/>
<polygon class="st2" points="415.6,40.5 415.6,31.4 410,40.5 "/>
<polygon class="st9" points="324.4,202.5 336.6,202.5 330.5,192.4 "/>
<polygon class="st1" points="330.5,192.4 336.6,202.5 342.7,192.4 "/>
<polygon class="st1" points="330.5,192.4 342.7,192.4 336.6,182.3 "/>
<polygon class="st9" points="336.6,182.3 342.7,192.4 348.9,182.3 "/>
<polygon class="st9" points="336.6,182.3 348.9,182.3 342.7,172.2 "/>
<polygon class="st1" points="348.9,182.3 355,172.2 342.7,172.2 "/>
<polygon class="st9" points="342.7,172.2 355,172.2 348.9,162 "/>
<polygon class="st7" points="355,172.2 361.1,162 348.9,162 "/>
<polygon class="st9" points="361.1,162 355,151.9 348.9,162 "/>
<polygon class="st1" points="361.1,162 367.2,151.9 355,151.9 "/>
<polygon class="st7" points="355,151.9 367.2,151.9 361.1,141.8 "/>
<polygon class="st3" points="367.2,151.9 373.3,141.8 361.1,141.8 "/>
<polygon class="st1" points="373.3,141.8 367.2,131.7 361.1,141.8 "/>
<polygon class="st8" points="373.3,141.8 379.5,131.7 367.2,131.7 "/>
<polygon class="st9" points="367.2,131.7 379.5,131.7 373.3,121.5 "/>
<polygon class="st7" points="379.5,131.7 385.6,121.5 373.3,121.5 "/>
<polygon class="st4" points="385.6,121.5 379.5,111.4 373.3,121.5 "/>
<polygon class="st9" points="385.6,121.5 391.7,111.4 379.5,111.4 "/>
<polygon class="st6" points="379.5,111.4 391.7,111.4 385.6,101.3 "/>
<polygon class="st9" points="391.7,111.4 397.8,101.3 385.6,101.3 "/>
<polygon class="st8" points="397.8,101.3 391.7,91.2 385.6,101.3 "/>
<polygon class="st3" points="397.8,101.3 403.9,91.2 391.7,91.2 "/>
<polygon class="st5" points="391.7,91.2 403.9,91.2 397.8,81.1 "/>
<polygon class="st9" points="403.9,91.2 410,81.1 397.8,81.1 "/>
<polygon class="st3" points="410,81.1 403.9,70.9 397.8,81.1 "/>
<polygon class="st4" points="410,81.1 415.6,71.9 415.6,70.9 403.9,70.9 "/>
<polygon class="st5" points="403.9,70.9 415.6,70.9 415.6,69.9 410,60.8 "/>
<polygon class="st3" points="415.6,69.9 415.6,60.8 410,60.8 "/>
<polygon class="st5" points="415.6,60.8 415.6,51.7 410,60.8 "/>
<polygon class="st9" points="336.6,202.5 348.9,202.5 342.7,192.4 "/>
<polygon class="st9" points="342.7,192.4 348.9,202.5 355,192.4 "/>
<polygon class="st7" points="342.7,192.4 355,192.4 348.9,182.3 "/>
<polygon class="st9" points="348.9,182.3 355,192.4 361.1,182.3 "/>
<polygon class="st9" points="361.1,182.3 355,172.2 348.9,182.3 "/>
<polygon class="st5" points="361.1,182.3 367.2,172.2 355,172.2 "/>
<polygon class="st9" points="355,172.2 367.2,172.2 361.1,162 "/>
<polygon class="st9" points="367.2,172.2 373.3,162 361.1,162 "/>
<polygon class="st9" points="373.3,162 367.2,151.9 361.1,162 "/>
<polygon class="st8" points="373.3,162 379.5,151.9 367.2,151.9 "/>
<polygon class="st9" points="367.2,151.9 379.5,151.9 373.3,141.8 "/>
<polygon class="st3" points="379.5,151.9 385.6,141.8 373.3,141.8 "/>
<polygon class="st9" points="385.6,141.8 379.5,131.7 373.3,141.8 "/>
<polygon class="st8" points="385.6,141.8 391.7,131.7 379.5,131.7 "/>
<polygon class="st9" points="379.5,131.7 391.7,131.7 385.6,121.5 "/>
<polygon class="st8" points="391.7,131.7 397.8,121.5 385.6,121.5 "/>
<polygon class="st8" points="397.8,121.5 391.7,111.4 385.6,121.5 "/>
<polygon class="st4" points="397.8,121.5 403.9,111.4 391.7,111.4 "/>
<polygon class="st8" points="391.7,111.4 403.9,111.4 397.8,101.3 "/>
<polygon class="st8" points="403.9,111.4 410,101.3 397.8,101.3 "/>
<polygon class="st6" points="410,101.3 403.9,91.2 397.8,101.3 "/>
<polygon class="st5" points="410,101.3 415.6,92.2 415.6,91.2 403.9,91.2 "/>
<polygon class="st6" points="403.9,91.2 415.6,91.2 415.6,90.2 410,81.1 "/>
<polygon class="st3" points="415.6,90.2 415.6,81.1 410,81.1 "/>
<polygon class="st5" points="415.6,81.1 415.6,71.9 410,81.1 "/>
<polygon class="st1" points="348.9,202.5 361.1,202.5 355,192.4 "/>
<polygon class="st1" points="355,192.4 361.1,202.5 367.2,192.4 "/>
<polygon class="st9" points="355,192.4 367.2,192.4 361.1,182.3 "/>
<polygon class="st9" points="367.2,192.4 373.3,182.3 361.1,182.3 "/>
<polygon class="st9" points="373.3,182.3 367.2,172.2 361.1,182.3 "/>
<polygon class="st9" points="373.3,182.3 379.5,172.2 367.2,172.2 "/>
<polygon class="st1" points="367.2,172.2 379.5,172.2 373.3,162 "/>
<polygon class="st9" points="379.5,172.2 385.6,162 373.3,162 "/>
<polygon class="st5" points="385.6,162 379.5,151.9 373.3,162 "/>
<polygon class="st9" points="385.6,162 391.7,151.9 379.5,151.9 "/>
<polygon class="st11" points="379.5,151.9 391.7,151.9 385.6,141.8 "/>
<polygon class="st8" points="391.7,151.9 397.8,141.8 385.6,141.8 "/>
<polygon class="st9" points="397.8,141.8 391.7,131.7 385.6,141.8 "/>
<polygon class="st5" points="397.8,141.8 403.9,131.7 391.7,131.7 "/>
<polygon class="st1" points="391.7,131.7 403.9,131.7 397.8,121.5 "/>
<polygon class="st8" points="403.9,131.7 410,121.5 397.8,121.5 "/>
<polygon class="st9" points="410,121.5 403.9,111.4 397.8,121.5 "/>
<polygon class="st8" points="410,121.5 415.6,112.4 415.6,111.4 403.9,111.4 "/>
<polygon class="st3" points="403.9,111.4 415.6,111.4 415.6,110.4 410,101.3 "/>
<polygon class="st8" points="415.6,110.4 415.6,101.3 410,101.3 "/>
<polygon class="st1" points="415.6,101.3 415.6,92.2 410,101.3 "/>
<polygon class="st9" points="361.1,202.5 373.3,202.5 367.2,192.4 "/>
<polygon class="st1" points="373.3,202.5 379.5,192.4 367.2,192.4 "/>
<polygon class="st8" points="367.2,192.4 379.5,192.4 373.3,182.3 "/>
<polygon class="st10" points="379.5,192.4 385.6,182.3 373.3,182.3 "/>
<polygon class="st12" points="385.6,182.3 379.5,172.2 373.3,182.3 "/>
<polygon class="st8" points="385.6,182.3 391.7,172.2 379.5,172.2 "/>
<polygon class="st9" points="379.5,172.2 391.7,172.2 385.6,162 "/>
<polygon class="st8" points="391.7,172.2 397.8,162 385.6,162 "/>
<polygon class="st9" points="397.8,162 391.7,151.9 385.6,162 "/>
<polygon class="st8" points="397.8,162 403.9,151.9 391.7,151.9 "/>
<polygon class="st7" points="391.7,151.9 403.9,151.9 397.8,141.8 "/>
<polygon class="st11" points="403.9,151.9 410,141.8 397.8,141.8 "/>
<polygon class="st9" points="410,141.8 403.9,131.7 397.8,141.8 "/>
<polygon class="st8" points="410,141.8 415.6,132.7 415.6,131.7 403.9,131.7 "/>
<polygon class="st3" points="403.9,131.7 415.6,131.7 415.6,130.7 410,121.5 "/>
<polygon class="st9" points="415.6,130.7 415.6,121.5 410,121.5 "/>
<polygon class="st9" points="415.6,121.5 415.6,112.4 410,121.5 "/>
<polygon class="st1" points="373.3,202.5 385.6,202.5 379.5,192.4 "/>
<polygon class="st9" points="385.6,202.5 391.7,192.4 379.5,192.4 "/>
<polygon class="st1" points="379.5,192.4 391.7,192.4 385.6,182.3 "/>
<polygon class="st9" points="391.7,192.4 397.8,182.3 385.6,182.3 "/>
<polygon class="st9" points="397.8,182.3 391.7,172.2 385.6,182.3 "/>
<polygon class="st13" points="397.8,182.3 403.9,172.2 391.7,172.2 "/>
<polygon class="st3" points="391.7,172.2 403.9,172.2 397.8,162 "/>
<polygon class="st11" points="403.9,172.2 410,162 397.8,162 "/>
<polygon class="st9" points="410,162 403.9,151.9 397.8,162 "/>
<polygon class="st8" points="410,162 415.6,152.9 415.6,151.9 403.9,151.9 "/>
<polygon class="st8" points="403.9,151.9 415.6,151.9 415.6,150.9 410,141.8 "/>
<polygon class="st1" points="415.6,150.9 415.6,141.8 410,141.8 "/>
<polygon class="st1" points="415.6,141.8 415.6,132.7 410,141.8 "/>
<polygon class="st1" points="385.6,202.5 397.8,202.5 391.7,192.4 "/>
<polygon class="st9" points="397.8,202.5 403.9,192.4 391.7,192.4 "/>
<polygon class="st5" points="391.7,192.4 403.9,192.4 397.8,182.3 "/>
<polygon class="st1" points="403.9,192.4 410,182.3 397.8,182.3 "/>
<polygon class="st8" points="410,182.3 403.9,172.2 397.8,182.3 "/>
<polygon class="st1" points="410,182.3 415.6,173.2 415.6,172.2 403.9,172.2 "/>
<polygon class="st1" points="403.9,172.2 415.6,172.2 415.6,171.1 410,162 "/>
<polygon class="st9" points="415.6,171.1 415.6,162 410,162 "/>
<polygon class="st8" points="415.6,162 415.6,152.9 410,162 "/>
<polygon class="st11" points="410,202.5 403.9,192.4 397.8,202.5 "/>
<polygon class="st13" points="410,202.5 415.6,193.4 415.6,192.4 403.9,192.4 "/>
<polygon class="st1" points="403.9,192.4 415.6,192.4 415.6,191.4 410,182.3 "/>
<polygon class="st8" points="415.6,191.4 415.6,182.3 410,182.3 "/>
<polygon class="st1" points="415.6,182.3 415.6,173.2 410,182.3 "/>
<polygon class="st11" points="415.6,202.5 415.6,193.4 410,202.5 "/>
<polygon class="st5" points="214.2,202.5 202.1,202.5 202.1,202.8 208.1,212.6 "/>
<polygon class="st7" points="220.3,212.6 214.2,202.5 208.1,212.6 "/>
<polygon class="st8" points="226.4,202.5 214.2,202.5 220.3,212.6 "/>
<polygon class="st4" points="232.6,212.6 226.4,202.5 220.3,212.6 "/>
<polygon class="st8" points="238.7,202.5 226.4,202.5 232.6,212.6 "/>
<polygon class="st8" points="244.8,212.6 238.7,202.5 232.6,212.6 "/>
<polygon class="st6" points="250.9,202.5 238.7,202.5 244.8,212.6 "/>
<polygon class="st7" points="257,212.6 250.9,202.5 244.8,212.6 "/>
<polygon class="st6" points="263.2,202.5 250.9,202.5 257,212.6 "/>
<polygon class="st9" points="269.3,212.6 263.2,202.5 257,212.6 "/>
<polygon class="st8" points="275.4,202.5 263.2,202.5 269.3,212.6 "/>
<polygon class="st7" points="281.5,212.6 275.4,202.5 269.3,212.6 "/>
<polygon class="st1" points="287.6,202.5 275.4,202.5 281.5,212.6 "/>
<polygon class="st8" points="293.8,212.6 287.6,202.5 281.5,212.6 "/>
<polygon class="st3" points="299.9,202.5 287.6,202.5 293.8,212.6 "/>
<polygon class="st9" points="306,212.6 299.9,202.5 293.8,212.6 "/>
<polygon class="st1" points="312.1,202.5 299.9,202.5 306,212.6 "/>
<polygon class="st9" points="318.3,212.6 312.1,202.5 306,212.6 "/>
<polygon class="st9" points="324.4,202.5 312.1,202.5 318.3,212.6 "/>
<polygon class="st5" points="330.5,212.6 324.4,202.5 318.3,212.6 "/>
<polygon class="st9" points="336.6,202.5 324.4,202.5 330.5,212.6 "/>
<polygon class="st7" points="342.7,212.6 336.6,202.5 330.5,212.6 "/>
<polygon class="st1" points="348.9,202.5 336.6,202.5 342.7,212.6 "/>
<polygon class="st9" points="355,212.6 348.9,202.5 342.7,212.6 "/>
<polygon class="st1" points="361.1,202.5 348.9,202.5 355,212.6 "/>
<polygon class="st1" points="367.2,212.6 361.1,202.5 355,212.6 "/>
<polygon class="st11" points="373.3,202.5 361.1,202.5 367.2,212.6 "/>
<polygon class="st1" points="379.5,212.6 373.3,202.5 367.2,212.6 "/>
<polygon class="st3" points="385.6,202.5 373.3,202.5 379.5,212.6 "/>
<polygon class="st8" points="391.7,212.6 385.6,202.5 379.5,212.6 "/>
<polygon class="st1" points="397.8,202.5 385.6,202.5 391.7,212.6 "/>
<polygon class="st9" points="403.9,212.6 397.8,202.5 391.7,212.6 "/>
<polygon class="st1" points="403.9,212.6 410,202.5 397.8,202.5 "/>
<polygon class="st8" points="415.6,212.6 415.6,211.6 410,202.5 403.9,212.6 "/>
<polygon class="st1" points="415.6,211.6 415.6,202.5 410,202.5 "/>
<polygon class="st1" points="116.5,202.3 116.5,202.5 116.6,202.5 "/>
<polygon class="st2" points="128.5,0 116.5,0 116.5,0.3 122.4,10.1 "/>
<polygon class="st3" points="128.5,20.3 116.5,20.3 116.5,20.6 122.4,30.4 "/>
<polygon class="st2" points="122.4,10.1 116.5,19.9 116.5,20.3 128.5,20.3 "/>
<polygon class="st4" points="134.6,10.1 122.4,10.1 128.5,20.3 "/>
<polygon class="st2" points="134.6,10.1 128.5,0 122.4,10.1 "/>
<polygon class="st2" points="140.8,0 128.5,0 134.6,10.1 "/>
<polygon class="st4" points="128.5,40.5 116.5,40.5 116.5,40.8 122.4,50.6 "/>
<polygon class="st2" points="122.4,30.4 116.5,40.2 116.5,40.5 128.5,40.5 "/>
<polygon class="st3" points="122.4,30.4 128.5,40.5 134.6,30.4 "/>
<polygon class="st2" points="128.5,20.3 122.4,30.4 134.6,30.4 "/>
<polygon class="st4" points="140.8,20.3 128.5,20.3 134.6,30.4 "/>
<polygon class="st2" points="140.8,20.3 134.6,10.1 128.5,20.3 "/>
<polygon class="st2" points="146.9,10.1 134.6,10.1 140.8,20.3 "/>
<polygon class="st2" points="146.9,10.1 140.8,0 134.6,10.1 "/>
<polygon class="st4" points="153,0 140.8,0 146.9,10.1 "/>
<polygon class="st3" points="128.5,60.7 116.5,60.7 116.5,61 122.4,70.9 "/>
<polygon class="st5" points="122.4,50.6 116.5,60.4 116.5,60.7 128.5,60.7 "/>
<polygon class="st4" points="122.4,50.6 128.5,60.7 134.6,50.6 "/>
<polygon class="st3" points="128.5,40.5 122.4,50.6 134.6,50.6 "/>
<polygon class="st3" points="140.8,40.5 128.5,40.5 134.6,50.6 "/>
<polygon class="st4" points="134.6,30.4 128.5,40.5 140.8,40.5 "/>
<polygon class="st2" points="134.6,30.4 140.8,40.5 146.9,30.4 "/>
<polygon class="st2" points="146.9,30.4 140.8,20.3 134.6,30.4 "/>
<polygon class="st5" points="153,20.3 140.8,20.3 146.9,30.4 "/>
<polygon class="st2" points="153,20.3 146.9,10.1 140.8,20.3 "/>
<polygon class="st2" points="159.1,10.1 146.9,10.1 153,20.3 "/>
<polygon class="st2" points="159.1,10.1 153,0 146.9,10.1 "/>
<polygon class="st2" points="165.2,0 153,0 159.1,10.1 "/>
<polygon class="st5" points="128.5,81 116.5,81 116.5,81.3 122.4,91.1 "/>
<polygon class="st4" points="122.4,70.9 116.5,80.7 116.5,81 128.5,81 "/>
<polygon class="st5" points="122.4,70.9 128.5,81 134.6,70.9 "/>
<polygon class="st3" points="128.5,60.7 122.4,70.9 134.6,70.9 "/>
<polygon class="st5" points="140.8,60.7 128.5,60.7 134.6,70.9 "/>
<polygon class="st3" points="134.6,50.6 128.5,60.7 140.8,60.7 "/>
<polygon class="st4" points="134.6,50.6 140.8,60.7 146.9,50.6 "/>
<polygon class="st4" points="140.8,40.5 134.6,50.6 146.9,50.6 "/>
<polygon class="st3" points="153,40.5 140.8,40.5 146.9,50.6 "/>
<polygon class="st4" points="146.9,30.4 140.8,40.5 153,40.5 "/>
<polygon class="st3" points="159.1,30.4 146.9,30.4 153,40.5 "/>
<polygon class="st2" points="159.1,30.4 153,20.3 146.9,30.4 "/>
<polygon class="st4" points="165.2,20.3 153,20.3 159.1,30.4 "/>
<polygon class="st2" points="165.2,20.3 159.1,10.1 153,20.3 "/>
<polygon class="st2" points="171.4,10.1 159.1,10.1 165.2,20.3 "/>
<polygon class="st4" points="171.4,10.1 165.2,0 159.1,10.1 "/>
<polygon class="st2" points="177.5,0 165.2,0 171.4,10.1 "/>
<polygon class="st3" points="128.5,101.2 116.5,101.2 116.5,101.6 122.4,111.4 "/>
<polygon class="st5" points="122.4,91.1 116.5,100.9 116.5,101.2 128.5,101.2 "/>
<polygon class="st4" points="122.4,91.1 128.5,101.2 134.6,91.1 "/>
<polygon class="st3" points="128.5,81 122.4,91.1 134.6,91.1 "/>
<polygon class="st6" points="140.8,81 128.5,81 134.6,91.1 "/>
<polygon class="st5" points="134.6,70.9 128.5,81 140.8,81 "/>
<polygon class="st6" points="134.6,70.9 140.8,81 146.9,70.9 "/>
<polygon class="st2" points="140.8,60.7 134.6,70.9 146.9,70.9 "/>
<polygon class="st5" points="153,60.7 140.8,60.7 146.9,70.9 "/>
<polygon class="st5" points="146.9,50.6 140.8,60.7 153,60.7 "/>
<polygon class="st3" points="146.9,50.6 153,60.7 159.1,50.6 "/>
<polygon class="st3" points="153,40.5 146.9,50.6 159.1,50.6 "/>
<polygon class="st2" points="165.2,40.5 153,40.5 159.1,50.6 "/>
<polygon class="st3" points="165.2,40.5 159.1,30.4 153,40.5 "/>
<polygon class="st5" points="171.4,30.4 159.1,30.4 165.2,40.5 "/>
<polygon class="st2" points="171.4,30.4 165.2,20.3 159.1,30.4 "/>
<polygon class="st3" points="177.5,20.3 165.2,20.3 171.4,30.4 "/>
<polygon class="st2" points="177.5,20.3 171.4,10.1 165.2,20.3 "/>
<polygon class="st3" points="183.6,10.1 171.4,10.1 177.5,20.3 "/>
<polygon class="st2" points="183.6,10.1 177.5,0 171.4,10.1 "/>
<polygon class="st2" points="189.7,0 177.5,0 183.6,10.1 "/>
<polygon class="st3" points="128.5,121.5 116.5,121.5 116.5,121.8 122.4,131.6 "/>
<polygon class="st4" points="122.4,111.4 116.5,121.2 116.5,121.5 128.5,121.5 "/>
<polygon class="st5" points="122.4,111.4 128.5,121.5 134.6,111.4 "/>
<polygon class="st3" points="128.5,101.2 122.4,111.4 134.6,111.4 "/>
<polygon class="st5" points="140.8,101.2 128.5,101.2 134.6,111.4 "/>
<polygon class="st3" points="134.6,91.1 128.5,101.2 140.8,101.2 "/>
<polygon class="st6" points="134.6,91.1 140.8,101.2 146.9,91.1 "/>
<polygon class="st3" points="140.8,81 134.6,91.1 146.9,91.1 "/>
<polygon class="st6" points="153,81 140.8,81 146.9,91.1 "/>
<polygon class="st3" points="146.9,70.9 140.8,81 153,81 "/>
<polygon class="st5" points="146.9,70.9 153,81 159.1,70.9 "/>
<polygon class="st3" points="153,60.7 146.9,70.9 159.1,70.9 "/>
<polygon class="st4" points="165.2,60.7 153,60.7 159.1,70.9 "/>
<polygon class="st2" points="159.1,50.6 153,60.7 165.2,60.7 "/>
<polygon class="st5" points="159.1,50.6 165.2,60.7 171.4,50.6 "/>
<polygon class="st3" points="171.4,50.6 165.2,40.5 159.1,50.6 "/>
<polygon class="st4" points="177.5,40.5 165.2,40.5 171.4,50.6 "/>
<polygon class="st2" points="177.5,40.5 171.4,30.4 165.2,40.5 "/>
<polygon class="st4" points="183.6,30.4 171.4,30.4 177.5,40.5 "/>
<polygon class="st2" points="183.6,30.4 177.5,20.3 171.4,30.4 "/>
<polygon class="st2" points="189.7,20.3 177.5,20.3 183.6,30.4 "/>
<polygon class="st4" points="189.7,20.3 183.6,10.1 177.5,20.3 "/>
<polygon class="st2" points="195.8,10.1 183.6,10.1 189.7,20.3 "/>
<polygon class="st2" points="195.8,10.1 189.7,0 183.6,10.1 "/>
<polygon class="st4" points="202,0 189.7,0 195.8,10.1 "/>
<polygon class="st6" points="128.5,141.7 116.5,141.7 116.5,142 122.4,151.9 "/>
<polygon class="st5" points="122.4,131.6 116.5,141.4 116.5,141.7 128.5,141.7 "/>
<polygon class="st3" points="122.4,131.6 128.5,141.7 134.6,131.6 "/>
<polygon class="st5" points="128.5,121.5 122.4,131.6 134.6,131.6 "/>
<polygon class="st6" points="140.8,121.5 128.5,121.5 134.6,131.6 "/>
<polygon class="st3" points="134.6,111.4 128.5,121.5 140.8,121.5 "/>
<polygon class="st6" points="134.6,111.4 140.8,121.5 146.9,111.4 "/>
<polygon class="st4" points="140.8,101.2 134.6,111.4 146.9,111.4 "/>
<polygon class="st6" points="153,101.2 140.8,101.2 146.9,111.4 "/>
<polygon class="st5" points="146.9,91.1 140.8,101.2 153,101.2 "/>
<polygon class="st5" points="146.9,91.1 153,101.2 159.1,91.1 "/>
<polygon class="st4" points="153,81 146.9,91.1 159.1,91.1 "/>
<polygon class="st5" points="165.2,81 153,81 159.1,91.1 "/>
<polygon class="st4" points="159.1,70.9 153,81 165.2,81 "/>
<polygon class="st3" points="159.1,70.9 165.2,81 171.4,70.9 "/>
<polygon class="st6" points="165.2,60.7 159.1,70.9 171.4,70.9 "/>
<polygon class="st4" points="177.5,60.7 165.2,60.7 171.4,70.9 "/>
<polygon class="st5" points="171.4,50.6 165.2,60.7 177.5,60.7 "/>
<polygon class="st4" points="183.6,50.6 171.4,50.6 177.5,60.7 "/>
<polygon class="st3" points="183.6,50.6 177.5,40.5 171.4,50.6 "/>
<polygon class="st2" points="189.7,40.5 177.5,40.5 183.6,50.6 "/>
<polygon class="st5" points="189.7,40.5 183.6,30.4 177.5,40.5 "/>
<polygon class="st4" points="195.8,30.4 183.6,30.4 189.7,40.5 "/>
<polygon class="st3" points="195.8,30.4 189.7,20.3 183.6,30.4 "/>
<polygon class="st2" points="202,20.3 189.7,20.3 195.8,30.4 "/>
<polygon class="st4" points="202,20.3 195.8,10.1 189.7,20.3 "/>
<polygon class="st2" points="208.1,10.1 195.8,10.1 202,20.3 "/>
<polygon class="st2" points="208.1,10.1 202,0 195.8,10.1 "/>
<polygon class="st4" points="116.5,162 116.5,162.3 122.4,172.1 128.5,162 "/>
<polygon class="st5" points="122.4,151.9 116.5,161.7 116.5,162 128.5,162 "/>
<polygon class="st3" points="122.4,151.9 128.5,162 134.6,151.9 "/>
<polygon class="st7" points="128.5,141.7 122.4,151.9 134.6,151.9 "/>
<polygon class="st6" points="140.8,141.7 128.5,141.7 134.6,151.9 "/>
<polygon class="st6" points="134.6,131.6 128.5,141.7 140.8,141.7 "/>
<polygon class="st5" points="134.6,131.6 140.8,141.7 146.9,131.6 "/>
<polygon class="st2" points="140.8,121.5 134.6,131.6 146.9,131.6 "/>
<polygon class="st7" points="153,121.5 140.8,121.5 146.9,131.6 "/>
<polygon class="st5" points="146.9,111.4 140.8,121.5 153,121.5 "/>
<polygon class="st3" points="146.9,111.4 153,121.5 159.1,111.4 "/>
<polygon class="st6" points="153,101.2 146.9,111.4 159.1,111.4 "/>
<polygon class="st3" points="165.2,101.2 153,101.2 159.1,111.4 "/>
<polygon class="st7" points="159.1,91.1 153,101.2 165.2,101.2 "/>
<polygon class="st6" points="159.1,91.1 165.2,101.2 171.4,91.1 "/>
<polygon class="st3" points="165.2,81 159.1,91.1 171.4,91.1 "/>
<polygon class="st6" points="177.5,81 165.2,81 171.4,91.1 "/>
<polygon class="st3" points="171.4,70.9 165.2,81 177.5,81 "/>
<polygon class="st4" points="171.4,70.9 177.5,81 183.6,70.9 "/>
<polygon class="st5" points="177.5,60.7 171.4,70.9 183.6,70.9 "/>
<polygon class="st3" points="189.7,60.7 177.5,60.7 183.6,70.9 "/>
<polygon class="st5" points="189.7,60.7 183.6,50.6 177.5,60.7 "/>
<polygon class="st3" points="195.8,50.6 183.6,50.6 189.7,60.7 "/>
<polygon class="st3" points="195.8,50.6 189.7,40.5 183.6,50.6 "/>
<polygon class="st3" points="202,40.5 189.7,40.5 195.8,50.6 "/>
<polygon class="st2" points="202,40.5 195.8,30.4 189.7,40.5 "/>
<polygon class="st2" points="208.1,30.4 195.8,30.4 202,40.5 "/>
<polygon class="st2" points="208.1,30.4 202,20.3 195.8,30.4 "/>
<polygon class="st6" points="128.5,182.2 116.5,182.2 116.5,182.5 122.4,192.3 "/>
<polygon class="st3" points="116.5,181.9 116.5,182.2 128.5,182.2 122.4,172.1 "/>
<polygon class="st6" points="122.4,172.1 128.5,182.2 134.6,172.1 "/>
<polygon class="st6" points="122.4,172.1 134.6,172.1 128.5,162 "/>
<polygon class="st5" points="128.5,162 134.6,172.1 140.8,162 "/>
<polygon class="st6" points="128.5,162 140.8,162 134.6,151.9 "/>
<polygon class="st4" points="134.6,151.9 140.8,162 146.9,151.9 "/>
<polygon class="st7" points="134.6,151.9 146.9,151.9 140.8,141.7 "/>
<polygon class="st7" points="140.8,141.7 146.9,151.9 153,141.7 "/>
<polygon class="st4" points="146.9,131.6 140.8,141.7 153,141.7 "/>
<polygon class="st6" points="146.9,131.6 153,141.7 159.1,131.6 "/>
<polygon class="st5" points="153,121.5 146.9,131.6 159.1,131.6 "/>
<polygon class="st4" points="165.2,121.5 153,121.5 159.1,131.6 "/>
<polygon class="st7" points="159.1,111.4 153,121.5 165.2,121.5 "/>
<polygon class="st6" points="159.1,111.4 165.2,121.5 171.4,111.4 "/>
<polygon class="st3" points="165.2,101.2 159.1,111.4 171.4,111.4 "/>
<polygon class="st5" points="177.5,101.2 165.2,101.2 171.4,111.4 "/>
<polygon class="st5" points="171.4,91.1 165.2,101.2 177.5,101.2 "/>
<polygon class="st6" points="171.4,91.1 177.5,101.2 183.6,91.1 "/>
<polygon class="st5" points="177.5,81 171.4,91.1 183.6,91.1 "/>
<polygon class="st3" points="189.7,81 177.5,81 183.6,91.1 "/>
<polygon class="st3" points="183.6,70.9 177.5,81 189.7,81 "/>
<polygon class="st5" points="183.6,70.9 189.7,81 195.8,70.9 "/>
<polygon class="st6" points="195.8,70.9 189.7,60.7 183.6,70.9 "/>
<polygon class="st4" points="202,60.7 189.7,60.7 195.8,70.9 "/>
<polygon class="st5" points="202,60.7 195.8,50.6 189.7,60.7 "/>
<polygon class="st3" points="208.1,50.6 195.8,50.6 202,60.7 "/>
<polygon class="st4" points="208.1,50.6 202,40.5 195.8,50.6 "/>
<polygon class="st6" points="128.5,202.5 122.4,192.3 116.5,202.1 116.5,202.3 116.6,202.5 "/>
<polygon class="st3" points="122.4,192.3 128.5,202.5 134.6,192.3 "/>
<polygon class="st5" points="128.5,182.2 122.4,192.3 134.6,192.3 "/>
<polygon class="st6" points="140.8,182.2 128.5,182.2 134.6,192.3 "/>
<polygon class="st8" points="134.6,172.1 128.5,182.2 140.8,182.2 "/>
<polygon class="st3" points="134.6,172.1 140.8,182.2 146.9,172.1 "/>
<polygon class="st7" points="140.8,162 134.6,172.1 146.9,172.1 "/>
<polygon class="st5" points="140.8,162 146.9,172.1 153,162 "/>
<polygon class="st8" points="146.9,151.9 140.8,162 153,162 "/>
<polygon class="st4" points="146.9,151.9 153,162 159.1,151.9 "/>
<polygon class="st3" points="153,141.7 146.9,151.9 159.1,151.9 "/>
<polygon class="st6" points="153,141.7 159.1,151.9 165.2,141.7 "/>
<polygon class="st5" points="159.1,131.6 153,141.7 165.2,141.7 "/>
<polygon class="st3" points="159.1,131.6 165.2,141.7 171.4,131.6 "/>
<polygon class="st7" points="165.2,121.5 159.1,131.6 171.4,131.6 "/>
<polygon class="st6" points="177.5,121.5 165.2,121.5 171.4,131.6 "/>
<polygon class="st5" points="171.4,111.4 165.2,121.5 177.5,121.5 "/>
<polygon class="st6" points="171.4,111.4 177.5,121.5 183.6,111.4 "/>
<polygon class="st2" points="177.5,101.2 171.4,111.4 183.6,111.4 "/>
<polygon class="st6" points="189.7,101.2 177.5,101.2 183.6,111.4 "/>
<polygon class="st5" points="183.6,91.1 177.5,101.2 189.7,101.2 "/>
<polygon class="st7" points="183.6,91.1 189.7,101.2 195.8,91.1 "/>
<polygon class="st6" points="189.7,81 183.6,91.1 195.8,91.1 "/>
<polygon class="st3" points="202,81 189.7,81 195.8,91.1 "/>
<polygon class="st3" points="195.8,70.9 189.7,81 202,81 "/>
<polygon class="st5" points="208.1,70.9 195.8,70.9 202,81 "/>
<polygon class="st3" points="208.1,70.9 202,60.7 195.8,70.9 "/>
<polygon class="st6" points="128.5,202.5 140.8,202.5 134.6,192.3 "/>
<polygon class="st7" points="134.6,192.3 140.8,202.5 146.9,192.3 "/>
<polygon class="st5" points="134.6,192.3 146.9,192.3 140.8,182.2 "/>
<polygon class="st6" points="140.8,182.2 146.9,192.3 153,182.2 "/>
<polygon class="st7" points="146.9,172.1 140.8,182.2 153,182.2 "/>
<polygon class="st6" points="146.9,172.1 153,182.2 159.1,172.1 "/>
<polygon class="st6" points="153,162 146.9,172.1 159.1,172.1 "/>
<polygon class="st5" points="153,162 159.1,172.1 165.2,162 "/>
<polygon class="st7" points="159.1,151.9 153,162 165.2,162 "/>
<polygon class="st6" points="159.1,151.9 165.2,162 171.4,151.9 "/>
<polygon class="st5" points="165.2,141.7 159.1,151.9 171.4,151.9 "/>
<polygon class="st3" points="165.2,141.7 171.4,151.9 177.5,141.7 "/>
<polygon class="st6" points="171.4,131.6 165.2,141.7 177.5,141.7 "/>
<polygon class="st7" points="171.4,131.6 177.5,141.7 183.6,131.6 "/>
<polygon class="st3" points="177.5,121.5 171.4,131.6 183.6,131.6 "/>
<polygon class="st5" points="189.7,121.5 177.5,121.5 183.6,131.6 "/>
<polygon class="st5" points="183.6,111.4 177.5,121.5 189.7,121.5 "/>
<polygon class="st7" points="183.6,111.4 189.7,121.5 195.8,111.4 "/>
<polygon class="st5" points="189.7,101.2 183.6,111.4 195.8,111.4 "/>
<polygon class="st6" points="202,101.2 189.7,101.2 195.8,111.4 "/>
<polygon class="st3" points="195.8,91.1 189.7,101.2 202,101.2 "/>
<polygon class="st5" points="195.8,91.1 202,101.2 208.1,91.1 "/>
<polygon class="st7" points="202,81 195.8,91.1 208.1,91.1 "/>
<polygon class="st6" points="146.9,192.3 140.8,202.5 153,202.5 "/>
<polygon class="st7" points="146.9,192.3 153,202.5 159.1,192.3 "/>
<polygon class="st5" points="153,182.2 146.9,192.3 159.1,192.3 "/>
<polygon class="st7" points="153,182.2 159.1,192.3 165.2,182.2 "/>
<polygon class="st7" points="159.1,172.1 153,182.2 165.2,182.2 "/>
<polygon class="st9" points="159.1,172.1 165.2,182.2 171.4,172.1 "/>
<polygon class="st3" points="165.2,162 159.1,172.1 171.4,172.1 "/>
<polygon class="st7" points="165.2,162 171.4,172.1 177.5,162 "/>
<polygon class="st6" points="171.4,151.9 165.2,162 177.5,162 "/>
<polygon class="st6" points="171.4,151.9 177.5,162 183.6,151.9 "/>
<polygon class="st5" points="177.5,141.7 171.4,151.9 183.6,151.9 "/>
<polygon class="st8" points="177.5,141.7 183.6,151.9 189.7,141.7 "/>
<polygon class="st5" points="183.6,131.6 177.5,141.7 189.7,141.7 "/>
<polygon class="st8" points="183.6,131.6 189.7,141.7 195.8,131.6 "/>
<polygon class="st4" points="189.7,121.5 183.6,131.6 195.8,131.6 "/>
<polygon class="st6" points="202,121.5 189.7,121.5 195.8,131.6 "/>
<polygon class="st5" points="195.8,111.4 189.7,121.5 202,121.5 "/>
<polygon class="st3" points="195.8,111.4 202,121.5 208.1,111.4 "/>
<polygon class="st9" points="202,101.2 195.8,111.4 208.1,111.4 "/>
<polygon class="st9" points="159.1,192.3 153,202.5 165.2,202.5 "/>
<polygon class="st8" points="159.1,192.3 165.2,202.5 171.4,192.3 "/>
<polygon class="st6" points="165.2,182.2 159.1,192.3 171.4,192.3 "/>
<polygon class="st4" points="165.2,182.2 171.4,192.3 177.5,182.2 "/>
<polygon class="st9" points="171.4,172.1 165.2,182.2 177.5,182.2 "/>
<polygon class="st7" points="171.4,172.1 177.5,182.2 183.6,172.1 "/>
<polygon class="st5" points="177.5,162 171.4,172.1 183.6,172.1 "/>
<polygon class="st9" points="177.5,162 183.6,172.1 189.7,162 "/>
<polygon class="st3" points="183.6,151.9 177.5,162 189.7,162 "/>
<polygon class="st9" points="183.6,151.9 189.7,162 195.8,151.9 "/>
<polygon class="st7" points="189.7,141.7 183.6,151.9 195.8,151.9 "/>
<polygon class="st6" points="189.7,141.7 195.8,151.9 202,141.7 "/>
<polygon class="st7" points="195.8,131.6 189.7,141.7 202,141.7 "/>
<polygon class="st8" points="195.8,131.6 202,141.7 208.1,131.6 "/>
<polygon class="st5" points="202,121.5 195.8,131.6 208.1,131.6 "/>
<polygon class="st7" points="165.2,202.5 177.5,202.5 171.4,192.3 "/>
<polygon class="st5" points="171.4,192.3 177.5,202.5 183.6,192.3 "/>
<polygon class="st9" points="171.4,192.3 183.6,192.3 177.5,182.2 "/>
<polygon class="st1" points="177.5,182.2 183.6,192.3 189.7,182.2 "/>
<polygon class="st6" points="177.5,182.2 189.7,182.2 183.6,172.1 "/>
<polygon class="st8" points="183.6,172.1 189.7,182.2 195.8,172.1 "/>
<polygon class="st8" points="183.6,172.1 195.8,172.1 189.7,162 "/>
<polygon class="st6" points="189.7,162 195.8,172.1 202,162 "/>
<polygon class="st5" points="189.7,162 202,162 195.8,151.9 "/>
<polygon class="st8" points="195.8,151.9 202,162 208.1,151.9 "/>
<polygon class="st9" points="195.8,151.9 208.1,151.9 202,141.7 "/>
<polygon class="st9" points="177.5,202.5 189.7,202.5 183.6,192.3 "/>
<polygon class="st7" points="183.6,192.3 189.7,202.5 195.8,192.3 "/>
<polygon class="st8" points="183.6,192.3 195.8,192.3 189.7,182.2 "/>
<polygon class="st7" points="189.7,182.2 195.8,192.3 202,182.2 "/>
<polygon class="st7" points="189.7,182.2 202,182.2 195.8,172.1 "/>
<polygon class="st5" points="195.8,172.1 202,182.2 208.1,172.1 "/>
<polygon class="st9" points="195.8,172.1 208.1,172.1 202,162 "/>
<polygon class="st9" points="189.7,202.5 202,202.5 195.8,192.3 "/>
<polygon class="st8" points="195.8,192.3 202,202.5 208.1,192.3 "/>
<polygon class="st9" points="195.8,192.3 208.1,192.3 202,182.2 "/>
<polygon class="st5" points="128.5,202.5 116.5,202.5 116.5,202.8 122.4,212.6 "/>
<polygon class="st7" points="134.6,212.6 128.5,202.5 122.4,212.6 "/>
<polygon class="st8" points="140.8,202.5 128.5,202.5 134.6,212.6 "/>
<polygon class="st4" points="146.9,212.6 140.8,202.5 134.6,212.6 "/>
<polygon class="st8" points="153,202.5 140.8,202.5 146.9,212.6 "/>
<polygon class="st8" points="159.1,212.6 153,202.5 146.9,212.6 "/>
<polygon class="st6" points="165.2,202.5 153,202.5 159.1,212.6 "/>
<polygon class="st7" points="171.4,212.6 165.2,202.5 159.1,212.6 "/>
<polygon class="st6" points="177.5,202.5 165.2,202.5 171.4,212.6 "/>
<polygon class="st9" points="183.6,212.6 177.5,202.5 171.4,212.6 "/>
<polygon class="st8" points="189.7,202.5 177.5,202.5 183.6,212.6 "/>
<polygon class="st7" points="195.8,212.6 189.7,202.5 183.6,212.6 "/>
<polygon class="st1" points="202,202.5 189.7,202.5 195.8,212.6 "/>
<polygon class="st8" points="208.1,212.6 202,202.5 195.8,212.6 "/>
<polygon class="st1" points="30.8,202.3 30.8,202.5 30.9,202.5 "/>
<polygon class="st2" points="42.8,0.1 30.8,0.1 30.8,0.4 36.7,10.2 "/>
<polygon class="st3" points="42.8,20.3 30.8,20.3 30.8,20.6 36.7,30.4 "/>
<polygon class="st2" points="36.7,10.2 30.8,20 30.8,20.3 42.8,20.3 "/>
<polygon class="st4" points="49,10.2 36.7,10.2 42.8,20.3 "/>
<polygon class="st2" points="49,10.2 42.8,0.1 36.7,10.2 "/>
<polygon class="st2" points="55.1,0.1 42.8,0.1 49,10.2 "/>
<polygon class="st4" points="42.8,40.6 30.8,40.6 30.8,40.9 36.7,50.7 "/>
<polygon class="st2" points="36.7,30.4 30.8,40.2 30.8,40.6 42.8,40.6 "/>
<polygon class="st3" points="36.7,30.4 42.8,40.6 49,30.4 "/>
<polygon class="st2" points="42.8,20.3 36.7,30.4 49,30.4 "/>
<polygon class="st4" points="55.1,20.3 42.8,20.3 49,30.4 "/>
<polygon class="st2" points="55.1,20.3 49,10.2 42.8,20.3 "/>
<polygon class="st2" points="61.2,10.2 49,10.2 55.1,20.3 "/>
<polygon class="st2" points="61.2,10.2 55.1,0.1 49,10.2 "/>
<polygon class="st4" points="67.3,0.1 55.1,0.1 61.2,10.2 "/>
<polygon class="st3" points="42.8,60.8 30.8,60.8 30.8,61.1 36.7,70.9 "/>
<polygon class="st5" points="36.7,50.7 30.8,60.5 30.8,60.8 42.8,60.8 "/>
<polygon class="st4" points="36.7,50.7 42.8,60.8 49,50.7 "/>
<polygon class="st3" points="42.8,40.6 36.7,50.7 49,50.7 "/>
<polygon class="st3" points="55.1,40.6 42.8,40.6 49,50.7 "/>
<polygon class="st4" points="49,30.4 42.8,40.6 55.1,40.6 "/>
<polygon class="st2" points="49,30.4 55.1,40.6 61.2,30.4 "/>
<polygon class="st2" points="61.2,30.4 55.1,20.3 49,30.4 "/>
<polygon class="st5" points="67.3,20.3 55.1,20.3 61.2,30.4 "/>
<polygon class="st2" points="67.3,20.3 61.2,10.2 55.1,20.3 "/>
<polygon class="st2" points="73.4,10.2 61.2,10.2 67.3,20.3 "/>
<polygon class="st2" points="73.4,10.2 67.3,0.1 61.2,10.2 "/>
<polygon class="st2" points="79.6,0.1 67.3,0.1 73.4,10.2 "/>
<polygon class="st5" points="42.8,81.1 30.8,81.1 30.8,81.4 36.7,91.2 "/>
<polygon class="st4" points="36.7,70.9 30.8,80.7 30.8,81.1 42.8,81.1 "/>
<polygon class="st5" points="36.7,70.9 42.8,81.1 49,70.9 "/>
<polygon class="st3" points="42.8,60.8 36.7,70.9 49,70.9 "/>
<polygon class="st5" points="55.1,60.8 42.8,60.8 49,70.9 "/>
<polygon class="st3" points="49,50.7 42.8,60.8 55.1,60.8 "/>
<polygon class="st4" points="49,50.7 55.1,60.8 61.2,50.7 "/>
<polygon class="st4" points="55.1,40.6 49,50.7 61.2,50.7 "/>
<polygon class="st3" points="67.3,40.6 55.1,40.6 61.2,50.7 "/>
<polygon class="st4" points="61.2,30.4 55.1,40.6 67.3,40.6 "/>
<polygon class="st3" points="73.4,30.4 61.2,30.4 67.3,40.6 "/>
<polygon class="st2" points="73.4,30.4 67.3,20.3 61.2,30.4 "/>
<polygon class="st4" points="79.6,20.3 67.3,20.3 73.4,30.4 "/>
<polygon class="st2" points="79.6,20.3 73.4,10.2 67.3,20.3 "/>
<polygon class="st2" points="85.7,10.2 73.4,10.2 79.6,20.3 "/>
<polygon class="st4" points="85.7,10.2 79.6,0.1 73.4,10.2 "/>
<polygon class="st2" points="91.8,0.1 79.6,0.1 85.7,10.2 "/>
<polygon class="st3" points="42.8,101.3 30.8,101.3 30.8,101.6 36.7,111.4 "/>
<polygon class="st5" points="36.7,91.2 30.8,101 30.8,101.3 42.8,101.3 "/>
<polygon class="st4" points="36.7,91.2 42.8,101.3 49,91.2 "/>
<polygon class="st3" points="42.8,81.1 36.7,91.2 49,91.2 "/>
<polygon class="st6" points="55.1,81.1 42.8,81.1 49,91.2 "/>
<polygon class="st5" points="49,70.9 42.8,81.1 55.1,81.1 "/>
<polygon class="st6" points="49,70.9 55.1,81.1 61.2,70.9 "/>
<polygon class="st2" points="55.1,60.8 49,70.9 61.2,70.9 "/>
<polygon class="st5" points="67.3,60.8 55.1,60.8 61.2,70.9 "/>
<polygon class="st5" points="61.2,50.7 55.1,60.8 67.3,60.8 "/>
<polygon class="st3" points="61.2,50.7 67.3,60.8 73.4,50.7 "/>
<polygon class="st3" points="67.3,40.6 61.2,50.7 73.4,50.7 "/>
<polygon class="st2" points="79.6,40.6 67.3,40.6 73.4,50.7 "/>
<polygon class="st3" points="79.6,40.6 73.4,30.4 67.3,40.6 "/>
<polygon class="st5" points="85.7,30.4 73.4,30.4 79.6,40.6 "/>
<polygon class="st2" points="85.7,30.4 79.6,20.3 73.4,30.4 "/>
<polygon class="st3" points="91.8,20.3 79.6,20.3 85.7,30.4 "/>
<polygon class="st2" points="91.8,20.3 85.7,10.2 79.6,20.3 "/>
<polygon class="st3" points="97.9,10.2 85.7,10.2 91.8,20.3 "/>
<polygon class="st2" points="97.9,10.2 91.8,0.1 85.7,10.2 "/>
<polygon class="st2" points="104,0.1 91.8,0.1 97.9,10.2 "/>
<polygon class="st3" points="42.8,121.6 30.8,121.6 30.8,121.9 36.7,131.7 "/>
<polygon class="st4" points="36.7,111.4 30.8,121.2 30.8,121.6 42.8,121.6 "/>
<polygon class="st5" points="36.7,111.4 42.8,121.6 49,111.4 "/>
<polygon class="st3" points="42.8,101.3 36.7,111.4 49,111.4 "/>
<polygon class="st5" points="55.1,101.3 42.8,101.3 49,111.4 "/>
<polygon class="st3" points="49,91.2 42.8,101.3 55.1,101.3 "/>
<polygon class="st6" points="49,91.2 55.1,101.3 61.2,91.2 "/>
<polygon class="st3" points="55.1,81.1 49,91.2 61.2,91.2 "/>
<polygon class="st6" points="67.3,81.1 55.1,81.1 61.2,91.2 "/>
<polygon class="st3" points="61.2,70.9 55.1,81.1 67.3,81.1 "/>
<polygon class="st5" points="61.2,70.9 67.3,81.1 73.4,70.9 "/>
<polygon class="st3" points="67.3,60.8 61.2,70.9 73.4,70.9 "/>
<polygon class="st4" points="79.6,60.8 67.3,60.8 73.4,70.9 "/>
<polygon class="st2" points="73.4,50.7 67.3,60.8 79.6,60.8 "/>
<polygon class="st5" points="73.4,50.7 79.6,60.8 85.7,50.7 "/>
<polygon class="st3" points="85.7,50.7 79.6,40.6 73.4,50.7 "/>
<polygon class="st4" points="91.8,40.6 79.6,40.6 85.7,50.7 "/>
<polygon class="st2" points="91.8,40.6 85.7,30.4 79.6,40.6 "/>
<polygon class="st4" points="97.9,30.4 85.7,30.4 91.8,40.6 "/>
<polygon class="st2" points="97.9,30.4 91.8,20.3 85.7,30.4 "/>
<polygon class="st2" points="104,20.3 91.8,20.3 97.9,30.4 "/>
<polygon class="st4" points="104,20.3 97.9,10.2 91.8,20.3 "/>
<polygon class="st2" points="110.2,10.2 97.9,10.2 104,20.3 "/>
<polygon class="st2" points="110.2,10.2 104,0.1 97.9,10.2 "/>
<polygon class="st4" points="116.3,0.1 104,0.1 110.2,10.2 "/>
<polygon class="st6" points="42.8,141.8 30.8,141.8 30.8,142.1 36.7,151.9 "/>
<polygon class="st5" points="36.7,131.7 30.8,141.5 30.8,141.8 42.8,141.8 "/>
<polygon class="st3" points="36.7,131.7 42.8,141.8 49,131.7 "/>
<polygon class="st5" points="42.8,121.6 36.7,131.7 49,131.7 "/>
<polygon class="st6" points="55.1,121.6 42.8,121.6 49,131.7 "/>
<polygon class="st3" points="49,111.4 42.8,121.6 55.1,121.6 "/>
<polygon class="st6" points="49,111.4 55.1,121.6 61.2,111.4 "/>
<polygon class="st4" points="55.1,101.3 49,111.4 61.2,111.4 "/>
<polygon class="st6" points="67.3,101.3 55.1,101.3 61.2,111.4 "/>
<polygon class="st5" points="61.2,91.2 55.1,101.3 67.3,101.3 "/>
<polygon class="st5" points="61.2,91.2 67.3,101.3 73.4,91.2 "/>
<polygon class="st4" points="67.3,81.1 61.2,91.2 73.4,91.2 "/>
<polygon class="st5" points="79.6,81.1 67.3,81.1 73.4,91.2 "/>
<polygon class="st4" points="73.4,70.9 67.3,81.1 79.6,81.1 "/>
<polygon class="st3" points="73.4,70.9 79.6,81.1 85.7,70.9 "/>
<polygon class="st6" points="79.6,60.8 73.4,70.9 85.7,70.9 "/>
<polygon class="st4" points="91.8,60.8 79.6,60.8 85.7,70.9 "/>
<polygon class="st5" points="85.7,50.7 79.6,60.8 91.8,60.8 "/>
<polygon class="st4" points="97.9,50.7 85.7,50.7 91.8,60.8 "/>
<polygon class="st3" points="97.9,50.7 91.8,40.6 85.7,50.7 "/>
<polygon class="st2" points="104,40.6 91.8,40.6 97.9,50.7 "/>
<polygon class="st5" points="104,40.6 97.9,30.4 91.8,40.6 "/>
<polygon class="st4" points="110.2,30.4 97.9,30.4 104,40.6 "/>
<polygon class="st3" points="110.2,30.4 104,20.3 97.9,30.4 "/>
<polygon class="st2" points="116.3,20.3 104,20.3 110.2,30.4 "/>
<polygon class="st4" points="116.3,20.3 110.2,10.2 104,20.3 "/>
<polygon class="st2" points="122.4,10.2 110.2,10.2 116.3,20.3 "/>
<polygon class="st2" points="122.4,10.2 116.3,0.1 110.2,10.2 "/>
<polygon class="st4" points="30.8,162 30.8,162.4 36.7,172.2 42.8,162 "/>
<polygon class="st5" points="36.7,151.9 30.8,161.7 30.8,162 42.8,162 "/>
<polygon class="st3" points="36.7,151.9 42.8,162 49,151.9 "/>
<polygon class="st7" points="42.8,141.8 36.7,151.9 49,151.9 "/>
<polygon class="st6" points="55.1,141.8 42.8,141.8 49,151.9 "/>
<polygon class="st6" points="49,131.7 42.8,141.8 55.1,141.8 "/>
<polygon class="st5" points="49,131.7 55.1,141.8 61.2,131.7 "/>
<polygon class="st2" points="55.1,121.6 49,131.7 61.2,131.7 "/>
<polygon class="st7" points="67.3,121.6 55.1,121.6 61.2,131.7 "/>
<polygon class="st5" points="61.2,111.4 55.1,121.6 67.3,121.6 "/>
<polygon class="st3" points="61.2,111.4 67.3,121.6 73.4,111.4 "/>
<polygon class="st6" points="67.3,101.3 61.2,111.4 73.4,111.4 "/>
<polygon class="st3" points="79.6,101.3 67.3,101.3 73.4,111.4 "/>
<polygon class="st7" points="73.4,91.2 67.3,101.3 79.6,101.3 "/>
<polygon class="st6" points="73.4,91.2 79.6,101.3 85.7,91.2 "/>
<polygon class="st3" points="79.6,81.1 73.4,91.2 85.7,91.2 "/>
<polygon class="st6" points="91.8,81.1 79.6,81.1 85.7,91.2 "/>
<polygon class="st3" points="85.7,70.9 79.6,81.1 91.8,81.1 "/>
<polygon class="st4" points="85.7,70.9 91.8,81.1 97.9,70.9 "/>
<polygon class="st5" points="91.8,60.8 85.7,70.9 97.9,70.9 "/>
<polygon class="st3" points="104,60.8 91.8,60.8 97.9,70.9 "/>
<polygon class="st5" points="104,60.8 97.9,50.7 91.8,60.8 "/>
<polygon class="st3" points="110.2,50.7 97.9,50.7 104,60.8 "/>
<polygon class="st3" points="110.2,50.7 104,40.6 97.9,50.7 "/>
<polygon class="st3" points="116.3,40.6 104,40.6 110.2,50.7 "/>
<polygon class="st2" points="116.3,40.6 110.2,30.4 104,40.6 "/>
<polygon class="st2" points="122.4,30.4 110.2,30.4 116.3,40.6 "/>
<polygon class="st2" points="122.4,30.4 116.3,20.3 110.2,30.4 "/>
<polygon class="st6" points="42.8,182.3 30.8,182.3 30.8,182.6 36.7,192.4 "/>
<polygon class="st3" points="30.8,182 30.8,182.3 42.8,182.3 36.7,172.2 "/>
<polygon class="st6" points="36.7,172.2 42.8,182.3 49,172.2 "/>
<polygon class="st6" points="36.7,172.2 49,172.2 42.8,162 "/>
<polygon class="st5" points="42.8,162 49,172.2 55.1,162 "/>
<polygon class="st6" points="42.8,162 55.1,162 49,151.9 "/>
<polygon class="st4" points="49,151.9 55.1,162 61.2,151.9 "/>
<polygon class="st7" points="49,151.9 61.2,151.9 55.1,141.8 "/>
<polygon class="st7" points="55.1,141.8 61.2,151.9 67.3,141.8 "/>
<polygon class="st4" points="61.2,131.7 55.1,141.8 67.3,141.8 "/>
<polygon class="st6" points="61.2,131.7 67.3,141.8 73.4,131.7 "/>
<polygon class="st5" points="67.3,121.6 61.2,131.7 73.4,131.7 "/>
<polygon class="st4" points="79.6,121.6 67.3,121.6 73.4,131.7 "/>
<polygon class="st7" points="73.4,111.4 67.3,121.6 79.6,121.6 "/>
<polygon class="st6" points="73.4,111.4 79.6,121.6 85.7,111.4 "/>
<polygon class="st3" points="79.6,101.3 73.4,111.4 85.7,111.4 "/>
<polygon class="st5" points="91.8,101.3 79.6,101.3 85.7,111.4 "/>
<polygon class="st5" points="85.7,91.2 79.6,101.3 91.8,101.3 "/>
<polygon class="st6" points="85.7,91.2 91.8,101.3 97.9,91.2 "/>
<polygon class="st5" points="91.8,81.1 85.7,91.2 97.9,91.2 "/>
<polygon class="st3" points="104,81.1 91.8,81.1 97.9,91.2 "/>
<polygon class="st3" points="97.9,70.9 91.8,81.1 104,81.1 "/>
<polygon class="st5" points="97.9,70.9 104,81.1 110.2,70.9 "/>
<polygon class="st6" points="110.2,70.9 104,60.8 97.9,70.9 "/>
<polygon class="st4" points="116.3,60.8 104,60.8 110.2,70.9 "/>
<polygon class="st5" points="116.3,60.8 110.2,50.7 104,60.8 "/>
<polygon class="st3" points="122.4,50.7 110.2,50.7 116.3,60.8 "/>
<polygon class="st4" points="122.4,50.7 116.3,40.6 110.2,50.7 "/>
<polygon class="st6" points="42.8,202.5 36.7,192.4 30.8,202.2 30.8,202.3 30.9,202.5 "/>
<polygon class="st3" points="36.7,192.4 42.8,202.5 49,192.4 "/>
<polygon class="st5" points="42.8,182.3 36.7,192.4 49,192.4 "/>
<polygon class="st6" points="55.1,182.3 42.8,182.3 49,192.4 "/>
<polygon class="st8" points="49,172.2 42.8,182.3 55.1,182.3 "/>
<polygon class="st3" points="49,172.2 55.1,182.3 61.2,172.2 "/>
<polygon class="st7" points="55.1,162 49,172.2 61.2,172.2 "/>
<polygon class="st5" points="55.1,162 61.2,172.2 67.3,162 "/>
<polygon class="st8" points="61.2,151.9 55.1,162 67.3,162 "/>
<polygon class="st4" points="61.2,151.9 67.3,162 73.4,151.9 "/>
<polygon class="st3" points="67.3,141.8 61.2,151.9 73.4,151.9 "/>
<polygon class="st6" points="67.3,141.8 73.4,151.9 79.6,141.8 "/>
<polygon class="st5" points="73.4,131.7 67.3,141.8 79.6,141.8 "/>
<polygon class="st3" points="73.4,131.7 79.6,141.8 85.7,131.7 "/>
<polygon class="st7" points="79.6,121.6 73.4,131.7 85.7,131.7 "/>
<polygon class="st6" points="91.8,121.6 79.6,121.6 85.7,131.7 "/>
<polygon class="st5" points="85.7,111.4 79.6,121.6 91.8,121.6 "/>
<polygon class="st6" points="85.7,111.4 91.8,121.6 97.9,111.4 "/>
<polygon class="st2" points="91.8,101.3 85.7,111.4 97.9,111.4 "/>
<polygon class="st6" points="104,101.3 91.8,101.3 97.9,111.4 "/>
<polygon class="st5" points="97.9,91.2 91.8,101.3 104,101.3 "/>
<polygon class="st7" points="97.9,91.2 104,101.3 110.2,91.2 "/>
<polygon class="st6" points="104,81.1 97.9,91.2 110.2,91.2 "/>
<polygon class="st3" points="116.3,81.1 104,81.1 110.2,91.2 "/>
<polygon class="st3" points="110.2,70.9 104,81.1 116.3,81.1 "/>
<polygon class="st5" points="122.4,70.9 110.2,70.9 116.3,81.1 "/>
<polygon class="st3" points="122.4,70.9 116.3,60.8 110.2,70.9 "/>
<polygon class="st6" points="42.8,202.5 55.1,202.5 49,192.4 "/>
<polygon class="st7" points="49,192.4 55.1,202.5 61.2,192.4 "/>
<polygon class="st5" points="49,192.4 61.2,192.4 55.1,182.3 "/>
<polygon class="st6" points="55.1,182.3 61.2,192.4 67.3,182.3 "/>
<polygon class="st7" points="61.2,172.2 55.1,182.3 67.3,182.3 "/>
<polygon class="st6" points="61.2,172.2 67.3,182.3 73.4,172.2 "/>
<polygon class="st6" points="67.3,162 61.2,172.2 73.4,172.2 "/>
<polygon class="st5" points="67.3,162 73.4,172.2 79.6,162 "/>
<polygon class="st7" points="73.4,151.9 67.3,162 79.6,162 "/>
<polygon class="st6" points="73.4,151.9 79.6,162 85.7,151.9 "/>
<polygon class="st5" points="79.6,141.8 73.4,151.9 85.7,151.9 "/>
<polygon class="st3" points="79.6,141.8 85.7,151.9 91.8,141.8 "/>
<polygon class="st6" points="85.7,131.7 79.6,141.8 91.8,141.8 "/>
<polygon class="st7" points="85.7,131.7 91.8,141.8 97.9,131.7 "/>
<polygon class="st3" points="91.8,121.6 85.7,131.7 97.9,131.7 "/>
<polygon class="st5" points="104,121.6 91.8,121.6 97.9,131.7 "/>
<polygon class="st5" points="97.9,111.4 91.8,121.6 104,121.6 "/>
<polygon class="st7" points="97.9,111.4 104,121.6 110.2,111.4 "/>
<polygon class="st5" points="104,101.3 97.9,111.4 110.2,111.4 "/>
<polygon class="st6" points="116.3,101.3 104,101.3 110.2,111.4 "/>
<polygon class="st3" points="110.2,91.2 104,101.3 116.3,101.3 "/>
<polygon class="st5" points="110.2,91.2 116.3,101.3 122.4,91.2 "/>
<polygon class="st7" points="116.3,81.1 110.2,91.2 122.4,91.2 "/>
<polygon class="st6" points="61.2,192.4 55.1,202.5 67.3,202.5 "/>
<polygon class="st7" points="61.2,192.4 67.3,202.5 73.4,192.4 "/>
<polygon class="st5" points="67.3,182.3 61.2,192.4 73.4,192.4 "/>
<polygon class="st7" points="67.3,182.3 73.4,192.4 79.6,182.3 "/>
<polygon class="st7" points="73.4,172.2 67.3,182.3 79.6,182.3 "/>
<polygon class="st9" points="73.4,172.2 79.6,182.3 85.7,172.2 "/>
<polygon class="st3" points="79.6,162 73.4,172.2 85.7,172.2 "/>
<polygon class="st7" points="79.6,162 85.7,172.2 91.8,162 "/>
<polygon class="st6" points="85.7,151.9 79.6,162 91.8,162 "/>
<polygon class="st6" points="85.7,151.9 91.8,162 97.9,151.9 "/>
<polygon class="st5" points="91.8,141.8 85.7,151.9 97.9,151.9 "/>
<polygon class="st8" points="91.8,141.8 97.9,151.9 104,141.8 "/>
<polygon class="st5" points="97.9,131.7 91.8,141.8 104,141.8 "/>
<polygon class="st8" points="97.9,131.7 104,141.8 110.2,131.7 "/>
<polygon class="st4" points="104,121.6 97.9,131.7 110.2,131.7 "/>
<polygon class="st6" points="116.3,121.6 104,121.6 110.2,131.7 "/>
<polygon class="st5" points="110.2,111.4 104,121.6 116.3,121.6 "/>
<polygon class="st3" points="110.2,111.4 116.3,121.6 122.4,111.4 "/>
<polygon class="st9" points="116.3,101.3 110.2,111.4 122.4,111.4 "/>
<polygon class="st9" points="73.4,192.4 67.3,202.5 79.6,202.5 "/>
<polygon class="st8" points="73.4,192.4 79.6,202.5 85.7,192.4 "/>
<polygon class="st6" points="79.6,182.3 73.4,192.4 85.7,192.4 "/>
<polygon class="st4" points="79.6,182.3 85.7,192.4 91.8,182.3 "/>
<polygon class="st9" points="85.7,172.2 79.6,182.3 91.8,182.3 "/>
<polygon class="st7" points="85.7,172.2 91.8,182.3 97.9,172.2 "/>
<polygon class="st5" points="91.8,162 85.7,172.2 97.9,172.2 "/>
<polygon class="st9" points="91.8,162 97.9,172.2 104,162 "/>
<polygon class="st3" points="97.9,151.9 91.8,162 104,162 "/>
<polygon class="st9" points="97.9,151.9 104,162 110.2,151.9 "/>
<polygon class="st7" points="104,141.8 97.9,151.9 110.2,151.9 "/>
<polygon class="st6" points="104,141.8 110.2,151.9 116.3,141.8 "/>
<polygon class="st7" points="110.2,131.7 104,141.8 116.3,141.8 "/>
<polygon class="st8" points="110.2,131.7 116.3,141.8 122.4,131.7 "/>
<polygon class="st5" points="116.3,121.6 110.2,131.7 122.4,131.7 "/>
<polygon class="st7" points="79.6,202.5 91.8,202.5 85.7,192.4 "/>
<polygon class="st5" points="85.7,192.4 91.8,202.5 97.9,192.4 "/>
<polygon class="st9" points="85.7,192.4 97.9,192.4 91.8,182.3 "/>
<polygon class="st1" points="91.8,182.3 97.9,192.4 104,182.3 "/>
<polygon class="st6" points="91.8,182.3 104,182.3 97.9,172.2 "/>
<polygon class="st8" points="97.9,172.2 104,182.3 110.2,172.2 "/>
<polygon class="st8" points="97.9,172.2 110.2,172.2 104,162 "/>
<polygon class="st6" points="104,162 110.2,172.2 116.3,162 "/>
<polygon class="st5" points="104,162 116.3,162 110.2,151.9 "/>
<polygon class="st8" points="110.2,151.9 116.3,162 122.4,151.9 "/>
<polygon class="st9" points="110.2,151.9 122.4,151.9 116.3,141.8 "/>
<polygon class="st9" points="91.8,202.5 104,202.5 97.9,192.4 "/>
<polygon class="st7" points="97.9,192.4 104,202.5 110.2,192.4 "/>
<polygon class="st8" points="97.9,192.4 110.2,192.4 104,182.3 "/>
<polygon class="st7" points="104,182.3 110.2,192.4 116.3,182.3 "/>
<polygon class="st7" points="104,182.3 116.3,182.3 110.2,172.2 "/>
<polygon class="st5" points="110.2,172.2 116.3,182.3 122.4,172.2 "/>
<polygon class="st9" points="110.2,172.2 122.4,172.2 116.3,162 "/>
<polygon class="st9" points="104,202.5 116.3,202.5 110.2,192.4 "/>
<polygon class="st8" points="110.2,192.4 116.3,202.5 122.4,192.4 "/>
<polygon class="st9" points="110.2,192.4 122.4,192.4 116.3,182.3 "/>
<polygon class="st5" points="42.8,202.5 30.8,202.5 30.8,202.8 36.7,212.6 "/>
<polygon class="st7" points="49,212.6 42.8,202.5 36.7,212.6 "/>
<polygon class="st8" points="55.1,202.5 42.8,202.5 49,212.6 "/>
<polygon class="st4" points="61.2,212.6 55.1,202.5 49,212.6 "/>
<polygon class="st8" points="67.3,202.5 55.1,202.5 61.2,212.6 "/>
<polygon class="st8" points="73.4,212.6 67.3,202.5 61.2,212.6 "/>
<polygon class="st6" points="79.6,202.5 67.3,202.5 73.4,212.6 "/>
<polygon class="st7" points="85.7,212.6 79.6,202.5 73.4,212.6 "/>
<polygon class="st6" points="91.8,202.5 79.6,202.5 85.7,212.6 "/>
<polygon class="st9" points="97.9,212.6 91.8,202.5 85.7,212.6 "/>
<polygon class="st8" points="104,202.5 91.8,202.5 97.9,212.6 "/>
<polygon class="st7" points="110.2,212.6 104,202.5 97.9,212.6 "/>
<polygon class="st1" points="116.3,202.5 104,202.5 110.2,212.6 "/>
<polygon class="st8" points="122.4,212.6 116.3,202.5 110.2,212.6 "/>
<line class="st14" x1="0" y1="10.1" x2="6.1" y2="0"/>
<line class="st14" x1="0" y1="30.4" x2="6.1" y2="20.3"/>
<line class="st14" x1="6.1" y1="20.3" x2="0" y2="10.1"/>
<polygon class="st3" points="12.2,10.1 0,10.1 6.1,20.3 "/>
<polygon class="st2" points="12.2,10.1 6.1,0 0,10.1 "/>
<polygon class="st2" points="18.4,0 6.1,0 12.2,10.1 "/>
<line class="st14" x1="0" y1="50.6" x2="6.1" y2="40.5"/>
<line class="st14" x1="6.1" y1="40.5" x2="0" y2="30.4"/>
<polygon class="st4" points="12.2,30.4 0,30.4 6.1,40.5 "/>
<polygon class="st2" points="12.2,30.4 6.1,20.3 0,30.4 "/>
<polygon class="st2" points="18.4,20.3 6.1,20.3 12.2,30.4 "/>
<polygon class="st4" points="18.4,20.3 12.2,10.1 6.1,20.3 "/>
<polygon class="st2" points="24.5,10.1 12.2,10.1 18.4,20.3 "/>
<polygon class="st2" points="24.5,10.1 18.4,0 12.2,10.1 "/>
<polygon class="st4" points="30.6,0 18.4,0 24.5,10.1 "/>
<line class="st14" x1="0" y1="70.9" x2="6.1" y2="60.7"/>
<line class="st14" x1="6.1" y1="60.7" x2="0" y2="50.6"/>
<polygon class="st4" points="12.2,50.6 0,50.6 6.1,60.7 "/>
<polygon class="st3" points="12.2,50.6 6.1,40.5 0,50.6 "/>
<polygon class="st2" points="18.4,40.5 6.1,40.5 12.2,50.6 "/>
<polygon class="st5" points="18.4,40.5 12.2,30.4 6.1,40.5 "/>
<polygon class="st4" points="24.5,30.4 12.2,30.4 18.4,40.5 "/>
<polygon class="st3" points="24.5,30.4 18.4,20.3 12.2,30.4 "/>
<polygon class="st2" points="30.6,20.3 18.4,20.3 24.5,30.4 "/>
<polygon class="st4" points="30.6,20.3 24.5,10.1 18.4,20.3 "/>
<polygon class="st2" points="36.7,10.1 24.5,10.1 30.6,20.3 "/>
<polygon class="st2" points="36.7,10.1 30.6,0 24.5,10.1 "/>
<line class="st14" x1="0" y1="91.1" x2="6.1" y2="81"/>
<line class="st14" x1="6.1" y1="81" x2="0" y2="70.9"/>
<polygon class="st4" points="0,70.9 6.1,81 12.2,70.9 "/>
<polygon class="st5" points="6.1,60.7 0,70.9 12.2,70.9 "/>
<polygon class="st3" points="18.4,60.7 6.1,60.7 12.2,70.9 "/>
<polygon class="st5" points="18.4,60.7 12.2,50.6 6.1,60.7 "/>
<polygon class="st3" points="24.5,50.6 12.2,50.6 18.4,60.7 "/>
<polygon class="st3" points="24.5,50.6 18.4,40.5 12.2,50.6 "/>
<polygon class="st3" points="30.6,40.5 18.4,40.5 24.5,50.6 "/>
<polygon class="st2" points="30.6,40.5 24.5,30.4 18.4,40.5 "/>
<polygon class="st2" points="36.7,30.4 24.5,30.4 30.6,40.5 "/>
<polygon class="st2" points="36.7,30.4 30.6,20.3 24.5,30.4 "/>
<line class="st14" x1="0" y1="111.4" x2="6.1" y2="101.2"/>
<line class="st14" x1="6.1" y1="101.2" x2="0" y2="91.1"/>
<polygon class="st6" points="0,91.1 6.1,101.2 12.2,91.1 "/>
<polygon class="st5" points="6.1,81 0,91.1 12.2,91.1 "/>
<polygon class="st3" points="18.4,81 6.1,81 12.2,91.1 "/>
<polygon class="st3" points="12.2,70.9 6.1,81 18.4,81 "/>
<polygon class="st5" points="12.2,70.9 18.4,81 24.5,70.9 "/>
<polygon class="st6" points="24.5,70.9 18.4,60.7 12.2,70.9 "/>
<polygon class="st4" points="30.6,60.7 18.4,60.7 24.5,70.9 "/>
<polygon class="st5" points="30.6,60.7 24.5,50.6 18.4,60.7 "/>
<polygon class="st3" points="36.7,50.6 24.5,50.6 30.6,60.7 "/>
<polygon class="st4" points="36.7,50.6 30.6,40.5 24.5,50.6 "/>
<line class="st14" x1="0" y1="131.6" x2="6.1" y2="121.5"/>
<line class="st14" x1="6.1" y1="121.5" x2="0" y2="111.4"/>
<polygon class="st6" points="0,111.4 6.1,121.5 12.2,111.4 "/>
<polygon class="st2" points="6.1,101.2 0,111.4 12.2,111.4 "/>
<polygon class="st6" points="18.4,101.2 6.1,101.2 12.2,111.4 "/>
<polygon class="st5" points="12.2,91.1 6.1,101.2 18.4,101.2 "/>
<polygon class="st7" points="12.2,91.1 18.4,101.2 24.5,91.1 "/>
<polygon class="st6" points="18.4,81 12.2,91.1 24.5,91.1 "/>
<polygon class="st3" points="30.6,81 18.4,81 24.5,91.1 "/>
<polygon class="st3" points="24.5,70.9 18.4,81 30.6,81 "/>
<polygon class="st5" points="36.7,70.9 24.5,70.9 30.6,81 "/>
<polygon class="st3" points="36.7,70.9 30.6,60.7 24.5,70.9 "/>
<line class="st14" x1="0" y1="151.9" x2="6.1" y2="141.7"/>
<line class="st14" x1="6.1" y1="141.7" x2="0" y2="131.6"/>
<polygon class="st7" points="0,131.6 6.1,141.7 12.2,131.6 "/>
<polygon class="st3" points="6.1,121.5 0,131.6 12.2,131.6 "/>
<polygon class="st5" points="18.4,121.5 6.1,121.5 12.2,131.6 "/>
<polygon class="st5" points="12.2,111.4 6.1,121.5 18.4,121.5 "/>
<polygon class="st7" points="12.2,111.4 18.4,121.5 24.5,111.4 "/>
<polygon class="st5" points="18.4,101.2 12.2,111.4 24.5,111.4 "/>
<polygon class="st6" points="30.6,101.2 18.4,101.2 24.5,111.4 "/>
<polygon class="st3" points="24.5,91.1 18.4,101.2 30.6,101.2 "/>
<polygon class="st5" points="24.5,91.1 30.6,101.2 36.7,91.1 "/>
<polygon class="st7" points="30.6,81 24.5,91.1 36.7,91.1 "/>
<line class="st14" x1="0" y1="172.1" x2="6.1" y2="162"/>
<line class="st14" x1="6.1" y1="162" x2="0" y2="151.9"/>
<polygon class="st6" points="0,151.9 6.1,162 12.2,151.9 "/>
<polygon class="st5" points="6.1,141.7 0,151.9 12.2,151.9 "/>
<polygon class="st8" points="6.1,141.7 12.2,151.9 18.4,141.7 "/>
<polygon class="st5" points="12.2,131.6 6.1,141.7 18.4,141.7 "/>
<polygon class="st8" points="12.2,131.6 18.4,141.7 24.5,131.6 "/>
<polygon class="st4" points="18.4,121.5 12.2,131.6 24.5,131.6 "/>
<polygon class="st6" points="30.6,121.5 18.4,121.5 24.5,131.6 "/>
<polygon class="st5" points="24.5,111.4 18.4,121.5 30.6,121.5 "/>
<polygon class="st3" points="24.5,111.4 30.6,121.5 36.7,111.4 "/>
<polygon class="st9" points="30.6,101.2 24.5,111.4 36.7,111.4 "/>
<line class="st14" x1="0" y1="192.4" x2="6.1" y2="182.2"/>
<line class="st14" x1="6.1" y1="182.2" x2="0" y2="172.1"/>
<polygon class="st7" points="0,172.1 6.1,182.2 12.2,172.1 "/>
<polygon class="st5" points="6.1,162 0,172.1 12.2,172.1 "/>
<polygon class="st9" points="6.1,162 12.2,172.1 18.4,162 "/>
<polygon class="st3" points="12.2,151.9 6.1,162 18.4,162 "/>
<polygon class="st9" points="12.2,151.9 18.4,162 24.5,151.9 "/>
<polygon class="st7" points="18.4,141.7 12.2,151.9 24.5,151.9 "/>
<polygon class="st6" points="18.4,141.7 24.5,151.9 30.6,141.7 "/>
<polygon class="st7" points="24.5,131.6 18.4,141.7 30.6,141.7 "/>
<polygon class="st8" points="24.5,131.6 30.6,141.7 36.7,131.6 "/>
<polygon class="st5" points="30.6,121.5 24.5,131.6 36.7,131.6 "/>
<line class="st14" x1="6.1" y1="202.5" x2="0" y2="192.4"/>
<polygon class="st5" points="0,192.4 6.1,202.5 12.2,192.4 "/>
<polygon class="st9" points="0,192.4 12.2,192.4 6.1,182.2 "/>
<polygon class="st1" points="6.1,182.2 12.2,192.4 18.4,182.2 "/>
<polygon class="st6" points="6.1,182.2 18.4,182.2 12.2,172.1 "/>
<polygon class="st8" points="12.2,172.1 18.4,182.2 24.5,172.1 "/>
<polygon class="st8" points="12.2,172.1 24.5,172.1 18.4,162 "/>
<polygon class="st6" points="18.4,162 24.5,172.1 30.6,162 "/>
<polygon class="st5" points="18.4,162 30.6,162 24.5,151.9 "/>
<polygon class="st8" points="24.5,151.9 30.6,162 36.7,151.9 "/>
<polygon class="st9" points="24.5,151.9 36.7,151.9 30.6,141.7 "/>
<polygon class="st9" points="6.1,202.5 18.4,202.5 12.2,192.4 "/>
<polygon class="st7" points="12.2,192.4 18.4,202.5 24.5,192.4 "/>
<polygon class="st8" points="12.2,192.4 24.5,192.4 18.4,182.2 "/>
<polygon class="st7" points="18.4,182.2 24.5,192.4 30.6,182.2 "/>
<polygon class="st7" points="18.4,182.2 30.6,182.2 24.5,172.1 "/>
<polygon class="st5" points="24.5,172.1 30.6,182.2 36.7,172.1 "/>
<polygon class="st9" points="24.5,172.1 36.7,172.1 30.6,162 "/>
<polygon class="st9" points="18.4,202.5 30.6,202.5 24.5,192.4 "/>
<polygon class="st8" points="24.5,192.4 30.6,202.5 36.7,192.4 "/>
<polygon class="st9" points="24.5,192.4 36.7,192.4 30.6,182.2 "/>
<line class="st14" x1="0" y1="212.6" x2="6.1" y2="202.5"/>
<polygon class="st9" points="12.2,212.6 6.1,202.5 0,212.6 "/>
<polygon class="st8" points="18.4,202.5 6.1,202.5 12.2,212.6 "/>
<polygon class="st7" points="24.5,212.6 18.4,202.5 12.2,212.6 "/>
<polygon class="st1" points="30.6,202.5 18.4,202.5 24.5,212.6 "/>
<polygon class="st8" points="36.7,212.6 30.6,202.5 24.5,212.6 "/>
<rect class="st15" width="415.6" height="212.6"/>
</svg>
